%TF.GenerationSoftware,KiCad,Pcbnew,7.0.9*%
%TF.CreationDate,2024-01-13T15:57:46+01:00*%
%TF.ProjectId,daisy-drums,64616973-792d-4647-9275-6d732e6b6963,v02*%
%TF.SameCoordinates,Original*%
%TF.FileFunction,Soldermask,Top*%
%TF.FilePolarity,Negative*%
%FSLAX46Y46*%
G04 Gerber Fmt 4.6, Leading zero omitted, Abs format (unit mm)*
G04 Created by KiCad (PCBNEW 7.0.9) date 2024-01-13 15:57:46*
%MOMM*%
%LPD*%
G01*
G04 APERTURE LIST*
G04 Aperture macros list*
%AMRoundRect*
0 Rectangle with rounded corners*
0 $1 Rounding radius*
0 $2 $3 $4 $5 $6 $7 $8 $9 X,Y pos of 4 corners*
0 Add a 4 corners polygon primitive as box body*
4,1,4,$2,$3,$4,$5,$6,$7,$8,$9,$2,$3,0*
0 Add four circle primitives for the rounded corners*
1,1,$1+$1,$2,$3*
1,1,$1+$1,$4,$5*
1,1,$1+$1,$6,$7*
1,1,$1+$1,$8,$9*
0 Add four rect primitives between the rounded corners*
20,1,$1+$1,$2,$3,$4,$5,0*
20,1,$1+$1,$4,$5,$6,$7,0*
20,1,$1+$1,$6,$7,$8,$9,0*
20,1,$1+$1,$8,$9,$2,$3,0*%
G04 Aperture macros list end*
%ADD10RoundRect,0.300800X-0.450000X0.262500X-0.450000X-0.262500X0.450000X-0.262500X0.450000X0.262500X0*%
%ADD11RoundRect,0.300800X0.312500X0.625000X-0.312500X0.625000X-0.312500X-0.625000X0.312500X-0.625000X0*%
%ADD12RoundRect,0.200800X0.850000X0.150000X-0.850000X0.150000X-0.850000X-0.150000X0.850000X-0.150000X0*%
%ADD13RoundRect,0.050800X-0.850000X-0.850000X0.850000X-0.850000X0.850000X0.850000X-0.850000X0.850000X0*%
%ADD14C,1.801600*%
%ADD15RoundRect,0.200800X-0.150000X0.825000X-0.150000X-0.825000X0.150000X-0.825000X0.150000X0.825000X0*%
%ADD16C,2.301600*%
%ADD17RoundRect,0.300800X-0.620000X-0.845000X0.620000X-0.845000X0.620000X0.845000X-0.620000X0.845000X0*%
%ADD18O,1.841600X2.291600*%
%ADD19RoundRect,0.300800X0.845000X-0.620000X0.845000X0.620000X-0.845000X0.620000X-0.845000X-0.620000X0*%
%ADD20O,2.291600X1.841600*%
%ADD21C,3.351600*%
%ADD22C,3.101600*%
%ADD23RoundRect,0.300800X0.620000X0.845000X-0.620000X0.845000X-0.620000X-0.845000X0.620000X-0.845000X0*%
%ADD24RoundRect,0.050800X0.350000X0.875000X-0.350000X0.875000X-0.350000X-0.875000X0.350000X-0.875000X0*%
%ADD25RoundRect,0.050800X0.725000X0.500000X-0.725000X0.500000X-0.725000X-0.500000X0.725000X-0.500000X0*%
%ADD26RoundRect,0.050800X0.500000X0.775000X-0.500000X0.775000X-0.500000X-0.775000X0.500000X-0.775000X0*%
%ADD27RoundRect,0.050800X0.400000X0.750000X-0.400000X0.750000X-0.400000X-0.750000X0.400000X-0.750000X0*%
%ADD28RoundRect,0.050800X0.650000X0.750000X-0.650000X0.750000X-0.650000X-0.750000X0.650000X-0.750000X0*%
%ADD29RoundRect,0.050800X0.750000X0.750000X-0.750000X0.750000X-0.750000X-0.750000X0.750000X-0.750000X0*%
%ADD30RoundRect,0.050800X0.400000X0.700000X-0.400000X0.700000X-0.400000X-0.700000X0.400000X-0.700000X0*%
G04 APERTURE END LIST*
D10*
%TO.C,R1*%
X191214000Y-55221500D03*
X191214000Y-57046500D03*
%TD*%
D11*
%TO.C,R11*%
X221388900Y-78765400D03*
X218463900Y-78765400D03*
%TD*%
%TO.C,R7*%
X221388900Y-88925400D03*
X218463900Y-88925400D03*
%TD*%
D12*
%TO.C,U6*%
X211708600Y-87426800D03*
X211708600Y-86156800D03*
X211708600Y-84886800D03*
X211708600Y-83616800D03*
X211708600Y-82346800D03*
X211708600Y-81076800D03*
X211708600Y-79806800D03*
X211708600Y-78536800D03*
X206708600Y-78536800D03*
X206708600Y-79806800D03*
X206708600Y-81076800D03*
X206708600Y-82346800D03*
X206708600Y-83616800D03*
X206708600Y-84886800D03*
X206708600Y-86156800D03*
X206708600Y-87426800D03*
%TD*%
D13*
%TO.C,A1*%
X180594000Y-64008000D03*
D14*
X180594000Y-66548000D03*
X180594000Y-69088000D03*
X180594000Y-71628000D03*
X180594000Y-74168000D03*
X180594000Y-76708000D03*
X180594000Y-79248000D03*
X180594000Y-81788000D03*
X180594000Y-84328000D03*
X180594000Y-86868000D03*
X180594000Y-89408000D03*
X180594000Y-91948000D03*
X180594000Y-94488000D03*
X180594000Y-97028000D03*
X180594000Y-99568000D03*
X180594000Y-102108000D03*
X180594000Y-104648000D03*
X180594000Y-107188000D03*
X180594000Y-109728000D03*
X180594000Y-112268000D03*
X195834000Y-112268000D03*
X195834000Y-109728000D03*
X195834000Y-107188000D03*
X195834000Y-104648000D03*
X195834000Y-102108000D03*
X195834000Y-99568000D03*
X195834000Y-97028000D03*
X195834000Y-94488000D03*
X195834000Y-91948000D03*
X195834000Y-89408000D03*
X195834000Y-86868000D03*
X195834000Y-84328000D03*
X195834000Y-81788000D03*
X195834000Y-79248000D03*
X195834000Y-76708000D03*
X195834000Y-74168000D03*
X195834000Y-71628000D03*
X195834000Y-69088000D03*
X195834000Y-66548000D03*
X195834000Y-64008000D03*
%TD*%
D15*
%TO.C,U5*%
X168445000Y-57545000D03*
X167175000Y-57545000D03*
X165905000Y-57545000D03*
X164635000Y-57545000D03*
X163365000Y-57545000D03*
X162095000Y-57545000D03*
X160825000Y-57545000D03*
X159555000Y-57545000D03*
X159555000Y-62495000D03*
X160825000Y-62495000D03*
X162095000Y-62495000D03*
X163365000Y-62495000D03*
X164635000Y-62495000D03*
X165905000Y-62495000D03*
X167175000Y-62495000D03*
X168445000Y-62495000D03*
%TD*%
D16*
%TO.C,REF\u002A\u002A*%
X235000000Y-124000000D03*
%TD*%
D17*
%TO.C,J2*%
X202438000Y-65532000D03*
D18*
X204978000Y-65532000D03*
%TD*%
D11*
%TO.C,R10*%
X221388900Y-81305400D03*
X218463900Y-81305400D03*
%TD*%
D17*
%TO.C,J12*%
X184404000Y-121031000D03*
D18*
X186944000Y-121031000D03*
X189484000Y-121031000D03*
X192024000Y-121031000D03*
%TD*%
D10*
%TO.C,R3*%
X185214000Y-55221500D03*
X185214000Y-57046500D03*
%TD*%
D19*
%TO.C,J11*%
X229565200Y-91465400D03*
D20*
X229565200Y-88925400D03*
X229565200Y-86385400D03*
X229565200Y-83845400D03*
X229565200Y-81305400D03*
X229565200Y-78765400D03*
X229565200Y-76225400D03*
X229565200Y-73685400D03*
%TD*%
D21*
%TO.C,CON1*%
X213457000Y-108966000D03*
D22*
X218412000Y-114046000D03*
X208502000Y-114046000D03*
X218412000Y-121666000D03*
X218412000Y-103886000D03*
X208502000Y-103886000D03*
%TD*%
D23*
%TO.C,J7*%
X150114000Y-94104000D03*
D18*
X147574000Y-94104000D03*
X145034000Y-94104000D03*
X142494000Y-94104000D03*
X139954000Y-94104000D03*
X137414000Y-94104000D03*
X134874000Y-94104000D03*
X132334000Y-94104000D03*
%TD*%
D15*
%TO.C,U2*%
X168445000Y-68913000D03*
X167175000Y-68913000D03*
X165905000Y-68913000D03*
X164635000Y-68913000D03*
X163365000Y-68913000D03*
X162095000Y-68913000D03*
X160825000Y-68913000D03*
X159555000Y-68913000D03*
X159555000Y-73863000D03*
X160825000Y-73863000D03*
X162095000Y-73863000D03*
X163365000Y-73863000D03*
X164635000Y-73863000D03*
X165905000Y-73863000D03*
X167175000Y-73863000D03*
X168445000Y-73863000D03*
%TD*%
D16*
%TO.C,REF\u002A\u002A*%
X128000000Y-49000000D03*
%TD*%
D10*
%TO.C,R2*%
X188214000Y-55221500D03*
X188214000Y-57046500D03*
%TD*%
D11*
%TO.C,R6*%
X221388900Y-91465400D03*
X218463900Y-91465400D03*
%TD*%
D10*
%TO.C,R5*%
X194214000Y-55221500D03*
X194214000Y-57046500D03*
%TD*%
D16*
%TO.C,REF\u002A\u002A*%
X128000000Y-124000000D03*
%TD*%
%TO.C,REF\u002A\u002A*%
X235000000Y-49000000D03*
%TD*%
D24*
%TO.C,J1*%
X220960600Y-55175800D03*
X222060600Y-55175800D03*
X223160600Y-55175800D03*
X224260600Y-55175800D03*
X225360600Y-55175800D03*
X226460600Y-55175800D03*
X227560600Y-55175800D03*
X228660600Y-55175800D03*
D25*
X229785600Y-64400800D03*
D26*
X218560600Y-65975800D03*
D27*
X230110600Y-62900800D03*
D28*
X229860600Y-55300800D03*
D29*
X218510600Y-55300800D03*
D30*
X218160600Y-63550800D03*
%TD*%
D11*
%TO.C,R8*%
X221388900Y-86385400D03*
X218463900Y-86385400D03*
%TD*%
D15*
%TO.C,U1*%
X168445000Y-114385000D03*
X167175000Y-114385000D03*
X165905000Y-114385000D03*
X164635000Y-114385000D03*
X163365000Y-114385000D03*
X162095000Y-114385000D03*
X160825000Y-114385000D03*
X159555000Y-114385000D03*
X159555000Y-119335000D03*
X160825000Y-119335000D03*
X162095000Y-119335000D03*
X163365000Y-119335000D03*
X164635000Y-119335000D03*
X165905000Y-119335000D03*
X167175000Y-119335000D03*
X168445000Y-119335000D03*
%TD*%
D23*
%TO.C,J4*%
X150114000Y-82736000D03*
D18*
X147574000Y-82736000D03*
X145034000Y-82736000D03*
X142494000Y-82736000D03*
X139954000Y-82736000D03*
X137414000Y-82736000D03*
X134874000Y-82736000D03*
X132334000Y-82736000D03*
%TD*%
D15*
%TO.C,U7*%
X168445000Y-91649000D03*
X167175000Y-91649000D03*
X165905000Y-91649000D03*
X164635000Y-91649000D03*
X163365000Y-91649000D03*
X162095000Y-91649000D03*
X160825000Y-91649000D03*
X159555000Y-91649000D03*
X159555000Y-96599000D03*
X160825000Y-96599000D03*
X162095000Y-96599000D03*
X163365000Y-96599000D03*
X164635000Y-96599000D03*
X165905000Y-96599000D03*
X167175000Y-96599000D03*
X168445000Y-96599000D03*
%TD*%
D11*
%TO.C,R12*%
X221388900Y-76225400D03*
X218463900Y-76225400D03*
%TD*%
D23*
%TO.C,J5*%
X150114000Y-105472000D03*
D18*
X147574000Y-105472000D03*
X145034000Y-105472000D03*
X142494000Y-105472000D03*
X139954000Y-105472000D03*
X137414000Y-105472000D03*
X134874000Y-105472000D03*
X132334000Y-105472000D03*
%TD*%
D23*
%TO.C,J8*%
X150114000Y-116840000D03*
D18*
X147574000Y-116840000D03*
X145034000Y-116840000D03*
X142494000Y-116840000D03*
X139954000Y-116840000D03*
X137414000Y-116840000D03*
X134874000Y-116840000D03*
X132334000Y-116840000D03*
%TD*%
D23*
%TO.C,J6*%
X150114000Y-71368000D03*
D18*
X147574000Y-71368000D03*
X145034000Y-71368000D03*
X142494000Y-71368000D03*
X139954000Y-71368000D03*
X137414000Y-71368000D03*
X134874000Y-71368000D03*
X132334000Y-71368000D03*
%TD*%
D11*
%TO.C,R9*%
X221388900Y-83845400D03*
X218463900Y-83845400D03*
%TD*%
D10*
%TO.C,R4*%
X182214000Y-55221500D03*
X182214000Y-57046500D03*
%TD*%
D11*
%TO.C,R13*%
X221388900Y-73685400D03*
X218463900Y-73685400D03*
%TD*%
D15*
%TO.C,U3*%
X168445000Y-103017000D03*
X167175000Y-103017000D03*
X165905000Y-103017000D03*
X164635000Y-103017000D03*
X163365000Y-103017000D03*
X162095000Y-103017000D03*
X160825000Y-103017000D03*
X159555000Y-103017000D03*
X159555000Y-107967000D03*
X160825000Y-107967000D03*
X162095000Y-107967000D03*
X163365000Y-107967000D03*
X164635000Y-107967000D03*
X165905000Y-107967000D03*
X167175000Y-107967000D03*
X168445000Y-107967000D03*
%TD*%
D23*
%TO.C,J3*%
X150114000Y-60000000D03*
D18*
X147574000Y-60000000D03*
X145034000Y-60000000D03*
X142494000Y-60000000D03*
X139954000Y-60000000D03*
X137414000Y-60000000D03*
X134874000Y-60000000D03*
X132334000Y-60000000D03*
%TD*%
D15*
%TO.C,U4*%
X168445000Y-80281000D03*
X167175000Y-80281000D03*
X165905000Y-80281000D03*
X164635000Y-80281000D03*
X163365000Y-80281000D03*
X162095000Y-80281000D03*
X160825000Y-80281000D03*
X159555000Y-80281000D03*
X159555000Y-85231000D03*
X160825000Y-85231000D03*
X162095000Y-85231000D03*
X163365000Y-85231000D03*
X164635000Y-85231000D03*
X165905000Y-85231000D03*
X167175000Y-85231000D03*
X168445000Y-85231000D03*
%TD*%
M02*
