%TF.GenerationSoftware,KiCad,Pcbnew,7.0.9*%
%TF.CreationDate,2024-01-13T15:58:18+01:00*%
%TF.ProjectId,daisy-drums,64616973-792d-4647-9275-6d732e6b6963,v02*%
%TF.SameCoordinates,Original*%
%TF.FileFunction,Drillmap*%
%TF.FilePolarity,Positive*%
%FSLAX45Y45*%
G04 Gerber Fmt 4.5, Leading zero omitted, Abs format (unit mm)*
G04 Created by KiCad (PCBNEW 7.0.9) date 2024-01-13 15:58:18*
%MOMM*%
%LPD*%
G01*
G04 APERTURE LIST*
%ADD10C,0.100000*%
%ADD11C,0.200000*%
%ADD12C,0.110000*%
%ADD13C,0.119000*%
%ADD14C,0.208000*%
G04 APERTURE END LIST*
D10*
X12500000Y-12700000D02*
X23800000Y-12700000D01*
X23800000Y-12700000D02*
X23800000Y-4600000D01*
X23800000Y-4600000D02*
X12500000Y-4600000D01*
X12500000Y-12700000D02*
X12500000Y-4600000D01*
D11*
D10*
X15931200Y-5745800D02*
X15971200Y-5785800D01*
X15971200Y-5745800D02*
X15931200Y-5785800D01*
X15931200Y-6863400D02*
X15971200Y-6903400D01*
X15971200Y-6863400D02*
X15931200Y-6903400D01*
X15931200Y-8006400D02*
X15971200Y-8046400D01*
X15971200Y-8006400D02*
X15931200Y-8046400D01*
X15931200Y-9149400D02*
X15971200Y-9189400D01*
X15971200Y-9149400D02*
X15931200Y-9189400D01*
X15931200Y-10292400D02*
X15971200Y-10332400D01*
X15971200Y-10292400D02*
X15931200Y-10332400D01*
X15931200Y-11410000D02*
X15971200Y-11450000D01*
X15971200Y-11410000D02*
X15931200Y-11450000D01*
X15936280Y-8511860D02*
X15976280Y-8551860D01*
X15976280Y-8511860D02*
X15936280Y-8551860D01*
X15936280Y-9644700D02*
X15976280Y-9684700D01*
X15976280Y-9644700D02*
X15936280Y-9684700D01*
X15936280Y-10785160D02*
X15976280Y-10825160D01*
X15976280Y-10785160D02*
X15936280Y-10825160D01*
X15936280Y-11923080D02*
X15976280Y-11963080D01*
X15976280Y-11923080D02*
X15936280Y-11963080D01*
X15938820Y-6233480D02*
X15978820Y-6273480D01*
X15978820Y-6233480D02*
X15938820Y-6273480D01*
X15938820Y-7366320D02*
X15978820Y-7406320D01*
X15978820Y-7366320D02*
X15938820Y-7406320D01*
X16053120Y-9906320D02*
X16093120Y-9946320D01*
X16093120Y-9906320D02*
X16053120Y-9946320D01*
X16055660Y-7640640D02*
X16095660Y-7680640D01*
X16095660Y-7640640D02*
X16055660Y-7680640D01*
X16058200Y-6228400D02*
X16098200Y-6268400D01*
X16098200Y-6228400D02*
X16058200Y-6268400D01*
X16058200Y-6510340D02*
X16098200Y-6550340D01*
X16098200Y-6510340D02*
X16058200Y-6550340D01*
X16058200Y-7371400D02*
X16098200Y-7411400D01*
X16098200Y-7371400D02*
X16058200Y-7411400D01*
X16058200Y-8514400D02*
X16098200Y-8554400D01*
X16098200Y-8514400D02*
X16058200Y-8554400D01*
X16058200Y-8798880D02*
X16098200Y-8838880D01*
X16098200Y-8798880D02*
X16058200Y-8838880D01*
X16058200Y-9632000D02*
X16098200Y-9672000D01*
X16098200Y-9632000D02*
X16058200Y-9672000D01*
X16058200Y-10775000D02*
X16098200Y-10815000D01*
X16098200Y-10775000D02*
X16058200Y-10815000D01*
X16058200Y-11918000D02*
X16098200Y-11958000D01*
X16098200Y-11918000D02*
X16058200Y-11958000D01*
X16058200Y-12217720D02*
X16098200Y-12257720D01*
X16098200Y-12217720D02*
X16058200Y-12257720D01*
X16060740Y-11079800D02*
X16100740Y-11119800D01*
X16100740Y-11079800D02*
X16060740Y-11119800D01*
X16695740Y-8001320D02*
X16735740Y-8041320D01*
X16735740Y-8001320D02*
X16695740Y-8041320D01*
X16698280Y-5733100D02*
X16738280Y-5773100D01*
X16738280Y-5733100D02*
X16698280Y-5773100D01*
X16698280Y-6233480D02*
X16738280Y-6273480D01*
X16738280Y-6233480D02*
X16698280Y-6273480D01*
X16698280Y-6871020D02*
X16738280Y-6911020D01*
X16738280Y-6871020D02*
X16698280Y-6911020D01*
X16698280Y-7376480D02*
X16738280Y-7416480D01*
X16738280Y-7376480D02*
X16698280Y-7416480D01*
X16698280Y-8514400D02*
X16738280Y-8554400D01*
X16738280Y-8514400D02*
X16698280Y-8554400D01*
X16698280Y-9149400D02*
X16738280Y-9189400D01*
X16738280Y-9149400D02*
X16698280Y-9189400D01*
X16698280Y-9649780D02*
X16738280Y-9689780D01*
X16738280Y-9649780D02*
X16698280Y-9689780D01*
X16698280Y-10282240D02*
X16738280Y-10322240D01*
X16738280Y-10282240D02*
X16698280Y-10322240D01*
X16698280Y-10787700D02*
X16738280Y-10827700D01*
X16738280Y-10787700D02*
X16698280Y-10827700D01*
X16698280Y-11420160D02*
X16738280Y-11460160D01*
X16738280Y-11420160D02*
X16698280Y-11460160D01*
X16698280Y-11918000D02*
X16738280Y-11958000D01*
X16738280Y-11918000D02*
X16698280Y-11958000D01*
X16825280Y-5733100D02*
X16865280Y-5773100D01*
X16865280Y-5733100D02*
X16825280Y-5773100D01*
X16825280Y-6868480D02*
X16865280Y-6908480D01*
X16865280Y-6868480D02*
X16825280Y-6908480D01*
X16825280Y-8001320D02*
X16865280Y-8041320D01*
X16865280Y-8001320D02*
X16825280Y-8041320D01*
X16825280Y-9146860D02*
X16865280Y-9186860D01*
X16865280Y-9146860D02*
X16825280Y-9186860D01*
X16825280Y-10282240D02*
X16865280Y-10322240D01*
X16865280Y-10282240D02*
X16825280Y-10322240D01*
X16825280Y-11420160D02*
X16865280Y-11460160D01*
X16865280Y-11420160D02*
X16825280Y-11460160D01*
X16926880Y-7366320D02*
X16966880Y-7406320D01*
X16966880Y-7366320D02*
X16926880Y-7406320D01*
X16942120Y-11912920D02*
X16982120Y-11952920D01*
X16982120Y-11912920D02*
X16942120Y-11952920D01*
X16944660Y-9639620D02*
X16984660Y-9679620D01*
X16984660Y-9639620D02*
X16944660Y-9679620D01*
X16944660Y-10777540D02*
X16984660Y-10817540D01*
X16984660Y-10777540D02*
X16944660Y-10817540D01*
X16947200Y-6228400D02*
X16987200Y-6268400D01*
X16987200Y-6228400D02*
X16947200Y-6268400D01*
X16947200Y-8504240D02*
X16987200Y-8544240D01*
X16987200Y-8504240D02*
X16947200Y-8544240D01*
X17480600Y-5695000D02*
X17520600Y-5735000D01*
X17520600Y-5695000D02*
X17480600Y-5735000D01*
X17887000Y-5517200D02*
X17927000Y-5557200D01*
X17927000Y-5517200D02*
X17887000Y-5557200D01*
X18201400Y-5510900D02*
X18241400Y-5550900D01*
X18241400Y-5510900D02*
X18201400Y-5550900D01*
X18501400Y-5510900D02*
X18541400Y-5550900D01*
X18541400Y-5510900D02*
X18501400Y-5550900D01*
X18801400Y-5510900D02*
X18841400Y-5550900D01*
X18841400Y-5510900D02*
X18801400Y-5550900D01*
X19101400Y-5510900D02*
X19141400Y-5550900D01*
X19141400Y-5510900D02*
X19101400Y-5550900D01*
X19401400Y-5510900D02*
X19441400Y-5550900D01*
X19441400Y-5510900D02*
X19401400Y-5550900D01*
X21547140Y-5126040D02*
X21587140Y-5166040D01*
X21587140Y-5126040D02*
X21547140Y-5166040D01*
X21547140Y-5230130D02*
X21587140Y-5270130D01*
X21587140Y-5230130D02*
X21547140Y-5270130D01*
X21547140Y-5626420D02*
X21587140Y-5666420D01*
X21587140Y-5626420D02*
X21547140Y-5666420D01*
X22076060Y-5497580D02*
X22116060Y-5537580D01*
X22116060Y-5497580D02*
X22076060Y-5537580D01*
X22186060Y-5497580D02*
X22226060Y-5537580D01*
X22226060Y-5497580D02*
X22186060Y-5537580D01*
D12*
X18114400Y-6400800D02*
G75*
G03*
X18114400Y-6400800I-55000J0D01*
G01*
X18114400Y-6654800D02*
G75*
G03*
X18114400Y-6654800I-55000J0D01*
G01*
X18114400Y-6908800D02*
G75*
G03*
X18114400Y-6908800I-55000J0D01*
G01*
X18114400Y-7162800D02*
G75*
G03*
X18114400Y-7162800I-55000J0D01*
G01*
X18114400Y-7416800D02*
G75*
G03*
X18114400Y-7416800I-55000J0D01*
G01*
X18114400Y-7670800D02*
G75*
G03*
X18114400Y-7670800I-55000J0D01*
G01*
X18114400Y-7924800D02*
G75*
G03*
X18114400Y-7924800I-55000J0D01*
G01*
X18114400Y-8178800D02*
G75*
G03*
X18114400Y-8178800I-55000J0D01*
G01*
X18114400Y-8432800D02*
G75*
G03*
X18114400Y-8432800I-55000J0D01*
G01*
X18114400Y-8686800D02*
G75*
G03*
X18114400Y-8686800I-55000J0D01*
G01*
X18114400Y-8940800D02*
G75*
G03*
X18114400Y-8940800I-55000J0D01*
G01*
X18114400Y-9194800D02*
G75*
G03*
X18114400Y-9194800I-55000J0D01*
G01*
X18114400Y-9448800D02*
G75*
G03*
X18114400Y-9448800I-55000J0D01*
G01*
X18114400Y-9702800D02*
G75*
G03*
X18114400Y-9702800I-55000J0D01*
G01*
X18114400Y-9956800D02*
G75*
G03*
X18114400Y-9956800I-55000J0D01*
G01*
X18114400Y-10210800D02*
G75*
G03*
X18114400Y-10210800I-55000J0D01*
G01*
X18114400Y-10464800D02*
G75*
G03*
X18114400Y-10464800I-55000J0D01*
G01*
X18114400Y-10718800D02*
G75*
G03*
X18114400Y-10718800I-55000J0D01*
G01*
X18114400Y-10972800D02*
G75*
G03*
X18114400Y-10972800I-55000J0D01*
G01*
X18114400Y-11226800D02*
G75*
G03*
X18114400Y-11226800I-55000J0D01*
G01*
X19638400Y-6400800D02*
G75*
G03*
X19638400Y-6400800I-55000J0D01*
G01*
X19638400Y-6654800D02*
G75*
G03*
X19638400Y-6654800I-55000J0D01*
G01*
X19638400Y-6908800D02*
G75*
G03*
X19638400Y-6908800I-55000J0D01*
G01*
X19638400Y-7162800D02*
G75*
G03*
X19638400Y-7162800I-55000J0D01*
G01*
X19638400Y-7416800D02*
G75*
G03*
X19638400Y-7416800I-55000J0D01*
G01*
X19638400Y-7670800D02*
G75*
G03*
X19638400Y-7670800I-55000J0D01*
G01*
X19638400Y-7924800D02*
G75*
G03*
X19638400Y-7924800I-55000J0D01*
G01*
X19638400Y-8178800D02*
G75*
G03*
X19638400Y-8178800I-55000J0D01*
G01*
X19638400Y-8432800D02*
G75*
G03*
X19638400Y-8432800I-55000J0D01*
G01*
X19638400Y-8686800D02*
G75*
G03*
X19638400Y-8686800I-55000J0D01*
G01*
X19638400Y-8940800D02*
G75*
G03*
X19638400Y-8940800I-55000J0D01*
G01*
X19638400Y-9194800D02*
G75*
G03*
X19638400Y-9194800I-55000J0D01*
G01*
X19638400Y-9448800D02*
G75*
G03*
X19638400Y-9448800I-55000J0D01*
G01*
X19638400Y-9702800D02*
G75*
G03*
X19638400Y-9702800I-55000J0D01*
G01*
X19638400Y-9956800D02*
G75*
G03*
X19638400Y-9956800I-55000J0D01*
G01*
X19638400Y-10210800D02*
G75*
G03*
X19638400Y-10210800I-55000J0D01*
G01*
X19638400Y-10464800D02*
G75*
G03*
X19638400Y-10464800I-55000J0D01*
G01*
X19638400Y-10718800D02*
G75*
G03*
X19638400Y-10718800I-55000J0D01*
G01*
X19638400Y-10972800D02*
G75*
G03*
X19638400Y-10972800I-55000J0D01*
G01*
X19638400Y-11226800D02*
G75*
G03*
X19638400Y-11226800I-55000J0D01*
G01*
D13*
X13233400Y-5940500D02*
X13233400Y-6059500D01*
X13173900Y-6000000D02*
X13292900Y-6000000D01*
X13233400Y-7077300D02*
X13233400Y-7196300D01*
X13173900Y-7136800D02*
X13292900Y-7136800D01*
X13233400Y-8214100D02*
X13233400Y-8333100D01*
X13173900Y-8273600D02*
X13292900Y-8273600D01*
X13233400Y-9350900D02*
X13233400Y-9469900D01*
X13173900Y-9410400D02*
X13292900Y-9410400D01*
X13233400Y-10487700D02*
X13233400Y-10606700D01*
X13173900Y-10547200D02*
X13292900Y-10547200D01*
X13233400Y-11624500D02*
X13233400Y-11743500D01*
X13173900Y-11684000D02*
X13292900Y-11684000D01*
X13487400Y-5940500D02*
X13487400Y-6059500D01*
X13427900Y-6000000D02*
X13546900Y-6000000D01*
X13487400Y-7077300D02*
X13487400Y-7196300D01*
X13427900Y-7136800D02*
X13546900Y-7136800D01*
X13487400Y-8214100D02*
X13487400Y-8333100D01*
X13427900Y-8273600D02*
X13546900Y-8273600D01*
X13487400Y-9350900D02*
X13487400Y-9469900D01*
X13427900Y-9410400D02*
X13546900Y-9410400D01*
X13487400Y-10487700D02*
X13487400Y-10606700D01*
X13427900Y-10547200D02*
X13546900Y-10547200D01*
X13487400Y-11624500D02*
X13487400Y-11743500D01*
X13427900Y-11684000D02*
X13546900Y-11684000D01*
X13741400Y-5940500D02*
X13741400Y-6059500D01*
X13681900Y-6000000D02*
X13800900Y-6000000D01*
X13741400Y-7077300D02*
X13741400Y-7196300D01*
X13681900Y-7136800D02*
X13800900Y-7136800D01*
X13741400Y-8214100D02*
X13741400Y-8333100D01*
X13681900Y-8273600D02*
X13800900Y-8273600D01*
X13741400Y-9350900D02*
X13741400Y-9469900D01*
X13681900Y-9410400D02*
X13800900Y-9410400D01*
X13741400Y-10487700D02*
X13741400Y-10606700D01*
X13681900Y-10547200D02*
X13800900Y-10547200D01*
X13741400Y-11624500D02*
X13741400Y-11743500D01*
X13681900Y-11684000D02*
X13800900Y-11684000D01*
X13995400Y-5940500D02*
X13995400Y-6059500D01*
X13935900Y-6000000D02*
X14054900Y-6000000D01*
X13995400Y-7077300D02*
X13995400Y-7196300D01*
X13935900Y-7136800D02*
X14054900Y-7136800D01*
X13995400Y-8214100D02*
X13995400Y-8333100D01*
X13935900Y-8273600D02*
X14054900Y-8273600D01*
X13995400Y-9350900D02*
X13995400Y-9469900D01*
X13935900Y-9410400D02*
X14054900Y-9410400D01*
X13995400Y-10487700D02*
X13995400Y-10606700D01*
X13935900Y-10547200D02*
X14054900Y-10547200D01*
X13995400Y-11624500D02*
X13995400Y-11743500D01*
X13935900Y-11684000D02*
X14054900Y-11684000D01*
X14249400Y-5940500D02*
X14249400Y-6059500D01*
X14189900Y-6000000D02*
X14308900Y-6000000D01*
X14249400Y-7077300D02*
X14249400Y-7196300D01*
X14189900Y-7136800D02*
X14308900Y-7136800D01*
X14249400Y-8214100D02*
X14249400Y-8333100D01*
X14189900Y-8273600D02*
X14308900Y-8273600D01*
X14249400Y-9350900D02*
X14249400Y-9469900D01*
X14189900Y-9410400D02*
X14308900Y-9410400D01*
X14249400Y-10487700D02*
X14249400Y-10606700D01*
X14189900Y-10547200D02*
X14308900Y-10547200D01*
X14249400Y-11624500D02*
X14249400Y-11743500D01*
X14189900Y-11684000D02*
X14308900Y-11684000D01*
X14503400Y-5940500D02*
X14503400Y-6059500D01*
X14443900Y-6000000D02*
X14562900Y-6000000D01*
X14503400Y-7077300D02*
X14503400Y-7196300D01*
X14443900Y-7136800D02*
X14562900Y-7136800D01*
X14503400Y-8214100D02*
X14503400Y-8333100D01*
X14443900Y-8273600D02*
X14562900Y-8273600D01*
X14503400Y-9350900D02*
X14503400Y-9469900D01*
X14443900Y-9410400D02*
X14562900Y-9410400D01*
X14503400Y-10487700D02*
X14503400Y-10606700D01*
X14443900Y-10547200D02*
X14562900Y-10547200D01*
X14503400Y-11624500D02*
X14503400Y-11743500D01*
X14443900Y-11684000D02*
X14562900Y-11684000D01*
X14757400Y-5940500D02*
X14757400Y-6059500D01*
X14697900Y-6000000D02*
X14816900Y-6000000D01*
X14757400Y-7077300D02*
X14757400Y-7196300D01*
X14697900Y-7136800D02*
X14816900Y-7136800D01*
X14757400Y-8214100D02*
X14757400Y-8333100D01*
X14697900Y-8273600D02*
X14816900Y-8273600D01*
X14757400Y-9350900D02*
X14757400Y-9469900D01*
X14697900Y-9410400D02*
X14816900Y-9410400D01*
X14757400Y-10487700D02*
X14757400Y-10606700D01*
X14697900Y-10547200D02*
X14816900Y-10547200D01*
X14757400Y-11624500D02*
X14757400Y-11743500D01*
X14697900Y-11684000D02*
X14816900Y-11684000D01*
X15011400Y-5940500D02*
X15011400Y-6059500D01*
X14951900Y-6000000D02*
X15070900Y-6000000D01*
X15011400Y-7077300D02*
X15011400Y-7196300D01*
X14951900Y-7136800D02*
X15070900Y-7136800D01*
X15011400Y-8214100D02*
X15011400Y-8333100D01*
X14951900Y-8273600D02*
X15070900Y-8273600D01*
X15011400Y-9350900D02*
X15011400Y-9469900D01*
X14951900Y-9410400D02*
X15070900Y-9410400D01*
X15011400Y-10487700D02*
X15011400Y-10606700D01*
X14951900Y-10547200D02*
X15070900Y-10547200D01*
X15011400Y-11624500D02*
X15011400Y-11743500D01*
X14951900Y-11684000D02*
X15070900Y-11684000D01*
X18440400Y-12043600D02*
X18440400Y-12162600D01*
X18380900Y-12103100D02*
X18499900Y-12103100D01*
X18694400Y-12043600D02*
X18694400Y-12162600D01*
X18634900Y-12103100D02*
X18753900Y-12103100D01*
X18948400Y-12043600D02*
X18948400Y-12162600D01*
X18888900Y-12103100D02*
X19007900Y-12103100D01*
X19202400Y-12043600D02*
X19202400Y-12162600D01*
X19142900Y-12103100D02*
X19261900Y-12103100D01*
X20243800Y-6493700D02*
X20243800Y-6612700D01*
X20184300Y-6553200D02*
X20303300Y-6553200D01*
X20497800Y-6493700D02*
X20497800Y-6612700D01*
X20438300Y-6553200D02*
X20557300Y-6553200D01*
X22956520Y-7309040D02*
X22956520Y-7428040D01*
X22897020Y-7368540D02*
X23016020Y-7368540D01*
X22956520Y-7563040D02*
X22956520Y-7682040D01*
X22897020Y-7622540D02*
X23016020Y-7622540D01*
X22956520Y-7817040D02*
X22956520Y-7936040D01*
X22897020Y-7876540D02*
X23016020Y-7876540D01*
X22956520Y-8071040D02*
X22956520Y-8190040D01*
X22897020Y-8130540D02*
X23016020Y-8130540D01*
X22956520Y-8325040D02*
X22956520Y-8444040D01*
X22897020Y-8384540D02*
X23016020Y-8384540D01*
X22956520Y-8579040D02*
X22956520Y-8698040D01*
X22897020Y-8638540D02*
X23016020Y-8638540D01*
X22956520Y-8833040D02*
X22956520Y-8952040D01*
X22897020Y-8892540D02*
X23016020Y-8892540D01*
X22956520Y-9087040D02*
X22956520Y-9206040D01*
X22897020Y-9146540D02*
X23016020Y-9146540D01*
D14*
X20923740Y-10462140D02*
X20923740Y-10315060D01*
X20776660Y-10315060D01*
X20776660Y-10462140D01*
X20923740Y-10462140D01*
X20923740Y-11478140D02*
X20923740Y-11331060D01*
X20776660Y-11331060D01*
X20776660Y-11478140D01*
X20923740Y-11478140D01*
X21914740Y-10462140D02*
X21914740Y-10315060D01*
X21767660Y-10315060D01*
X21767660Y-10462140D01*
X21914740Y-10462140D01*
X21914740Y-11478140D02*
X21914740Y-11331060D01*
X21767660Y-11331060D01*
X21767660Y-11478140D01*
X21914740Y-11478140D01*
X21914740Y-12240140D02*
X21914740Y-12093060D01*
X21767660Y-12093060D01*
X21767660Y-12240140D01*
X21914740Y-12240140D01*
D11*
X12755777Y-13016484D02*
X12755777Y-12816484D01*
X12755777Y-12816484D02*
X12803396Y-12816484D01*
X12803396Y-12816484D02*
X12831967Y-12826008D01*
X12831967Y-12826008D02*
X12851015Y-12845055D01*
X12851015Y-12845055D02*
X12860539Y-12864103D01*
X12860539Y-12864103D02*
X12870062Y-12902198D01*
X12870062Y-12902198D02*
X12870062Y-12930769D01*
X12870062Y-12930769D02*
X12860539Y-12968865D01*
X12860539Y-12968865D02*
X12851015Y-12987912D01*
X12851015Y-12987912D02*
X12831967Y-13006960D01*
X12831967Y-13006960D02*
X12803396Y-13016484D01*
X12803396Y-13016484D02*
X12755777Y-13016484D01*
X12955777Y-13016484D02*
X12955777Y-12883150D01*
X12955777Y-12921246D02*
X12965301Y-12902198D01*
X12965301Y-12902198D02*
X12974824Y-12892674D01*
X12974824Y-12892674D02*
X12993872Y-12883150D01*
X12993872Y-12883150D02*
X13012920Y-12883150D01*
X13079586Y-13016484D02*
X13079586Y-12883150D01*
X13079586Y-12816484D02*
X13070062Y-12826008D01*
X13070062Y-12826008D02*
X13079586Y-12835531D01*
X13079586Y-12835531D02*
X13089110Y-12826008D01*
X13089110Y-12826008D02*
X13079586Y-12816484D01*
X13079586Y-12816484D02*
X13079586Y-12835531D01*
X13203396Y-13016484D02*
X13184348Y-13006960D01*
X13184348Y-13006960D02*
X13174824Y-12987912D01*
X13174824Y-12987912D02*
X13174824Y-12816484D01*
X13308158Y-13016484D02*
X13289110Y-13006960D01*
X13289110Y-13006960D02*
X13279586Y-12987912D01*
X13279586Y-12987912D02*
X13279586Y-12816484D01*
X13536729Y-13016484D02*
X13536729Y-12816484D01*
X13536729Y-12816484D02*
X13603396Y-12959341D01*
X13603396Y-12959341D02*
X13670062Y-12816484D01*
X13670062Y-12816484D02*
X13670062Y-13016484D01*
X13851015Y-13016484D02*
X13851015Y-12911722D01*
X13851015Y-12911722D02*
X13841491Y-12892674D01*
X13841491Y-12892674D02*
X13822443Y-12883150D01*
X13822443Y-12883150D02*
X13784348Y-12883150D01*
X13784348Y-12883150D02*
X13765301Y-12892674D01*
X13851015Y-13006960D02*
X13831967Y-13016484D01*
X13831967Y-13016484D02*
X13784348Y-13016484D01*
X13784348Y-13016484D02*
X13765301Y-13006960D01*
X13765301Y-13006960D02*
X13755777Y-12987912D01*
X13755777Y-12987912D02*
X13755777Y-12968865D01*
X13755777Y-12968865D02*
X13765301Y-12949817D01*
X13765301Y-12949817D02*
X13784348Y-12940293D01*
X13784348Y-12940293D02*
X13831967Y-12940293D01*
X13831967Y-12940293D02*
X13851015Y-12930769D01*
X13946253Y-12883150D02*
X13946253Y-13083150D01*
X13946253Y-12892674D02*
X13965301Y-12883150D01*
X13965301Y-12883150D02*
X14003396Y-12883150D01*
X14003396Y-12883150D02*
X14022443Y-12892674D01*
X14022443Y-12892674D02*
X14031967Y-12902198D01*
X14031967Y-12902198D02*
X14041491Y-12921246D01*
X14041491Y-12921246D02*
X14041491Y-12978388D01*
X14041491Y-12978388D02*
X14031967Y-12997436D01*
X14031967Y-12997436D02*
X14022443Y-13006960D01*
X14022443Y-13006960D02*
X14003396Y-13016484D01*
X14003396Y-13016484D02*
X13965301Y-13016484D01*
X13965301Y-13016484D02*
X13946253Y-13006960D01*
X14127205Y-12997436D02*
X14136729Y-13006960D01*
X14136729Y-13006960D02*
X14127205Y-13016484D01*
X14127205Y-13016484D02*
X14117682Y-13006960D01*
X14117682Y-13006960D02*
X14127205Y-12997436D01*
X14127205Y-12997436D02*
X14127205Y-13016484D01*
X14127205Y-12892674D02*
X14136729Y-12902198D01*
X14136729Y-12902198D02*
X14127205Y-12911722D01*
X14127205Y-12911722D02*
X14117682Y-12902198D01*
X14117682Y-12902198D02*
X14127205Y-12892674D01*
X14127205Y-12892674D02*
X14127205Y-12911722D01*
D10*
X12455000Y-13325000D02*
X12495000Y-13365000D01*
X12495000Y-13325000D02*
X12455000Y-13365000D01*
D11*
X12793872Y-13236484D02*
X12812920Y-13236484D01*
X12812920Y-13236484D02*
X12831967Y-13246008D01*
X12831967Y-13246008D02*
X12841491Y-13255531D01*
X12841491Y-13255531D02*
X12851015Y-13274579D01*
X12851015Y-13274579D02*
X12860539Y-13312674D01*
X12860539Y-13312674D02*
X12860539Y-13360293D01*
X12860539Y-13360293D02*
X12851015Y-13398388D01*
X12851015Y-13398388D02*
X12841491Y-13417436D01*
X12841491Y-13417436D02*
X12831967Y-13426960D01*
X12831967Y-13426960D02*
X12812920Y-13436484D01*
X12812920Y-13436484D02*
X12793872Y-13436484D01*
X12793872Y-13436484D02*
X12774824Y-13426960D01*
X12774824Y-13426960D02*
X12765301Y-13417436D01*
X12765301Y-13417436D02*
X12755777Y-13398388D01*
X12755777Y-13398388D02*
X12746253Y-13360293D01*
X12746253Y-13360293D02*
X12746253Y-13312674D01*
X12746253Y-13312674D02*
X12755777Y-13274579D01*
X12755777Y-13274579D02*
X12765301Y-13255531D01*
X12765301Y-13255531D02*
X12774824Y-13246008D01*
X12774824Y-13246008D02*
X12793872Y-13236484D01*
X12946253Y-13417436D02*
X12955777Y-13426960D01*
X12955777Y-13426960D02*
X12946253Y-13436484D01*
X12946253Y-13436484D02*
X12936729Y-13426960D01*
X12936729Y-13426960D02*
X12946253Y-13417436D01*
X12946253Y-13417436D02*
X12946253Y-13436484D01*
X13127205Y-13303150D02*
X13127205Y-13436484D01*
X13079586Y-13226960D02*
X13031967Y-13369817D01*
X13031967Y-13369817D02*
X13155777Y-13369817D01*
X13270062Y-13236484D02*
X13289110Y-13236484D01*
X13289110Y-13236484D02*
X13308158Y-13246008D01*
X13308158Y-13246008D02*
X13317682Y-13255531D01*
X13317682Y-13255531D02*
X13327205Y-13274579D01*
X13327205Y-13274579D02*
X13336729Y-13312674D01*
X13336729Y-13312674D02*
X13336729Y-13360293D01*
X13336729Y-13360293D02*
X13327205Y-13398388D01*
X13327205Y-13398388D02*
X13317682Y-13417436D01*
X13317682Y-13417436D02*
X13308158Y-13426960D01*
X13308158Y-13426960D02*
X13289110Y-13436484D01*
X13289110Y-13436484D02*
X13270062Y-13436484D01*
X13270062Y-13436484D02*
X13251015Y-13426960D01*
X13251015Y-13426960D02*
X13241491Y-13417436D01*
X13241491Y-13417436D02*
X13231967Y-13398388D01*
X13231967Y-13398388D02*
X13222443Y-13360293D01*
X13222443Y-13360293D02*
X13222443Y-13312674D01*
X13222443Y-13312674D02*
X13231967Y-13274579D01*
X13231967Y-13274579D02*
X13241491Y-13255531D01*
X13241491Y-13255531D02*
X13251015Y-13246008D01*
X13251015Y-13246008D02*
X13270062Y-13236484D01*
X13460539Y-13236484D02*
X13479586Y-13236484D01*
X13479586Y-13236484D02*
X13498634Y-13246008D01*
X13498634Y-13246008D02*
X13508158Y-13255531D01*
X13508158Y-13255531D02*
X13517682Y-13274579D01*
X13517682Y-13274579D02*
X13527205Y-13312674D01*
X13527205Y-13312674D02*
X13527205Y-13360293D01*
X13527205Y-13360293D02*
X13517682Y-13398388D01*
X13517682Y-13398388D02*
X13508158Y-13417436D01*
X13508158Y-13417436D02*
X13498634Y-13426960D01*
X13498634Y-13426960D02*
X13479586Y-13436484D01*
X13479586Y-13436484D02*
X13460539Y-13436484D01*
X13460539Y-13436484D02*
X13441491Y-13426960D01*
X13441491Y-13426960D02*
X13431967Y-13417436D01*
X13431967Y-13417436D02*
X13422443Y-13398388D01*
X13422443Y-13398388D02*
X13412920Y-13360293D01*
X13412920Y-13360293D02*
X13412920Y-13312674D01*
X13412920Y-13312674D02*
X13422443Y-13274579D01*
X13422443Y-13274579D02*
X13431967Y-13255531D01*
X13431967Y-13255531D02*
X13441491Y-13246008D01*
X13441491Y-13246008D02*
X13460539Y-13236484D01*
X13612920Y-13436484D02*
X13612920Y-13303150D01*
X13612920Y-13322198D02*
X13622443Y-13312674D01*
X13622443Y-13312674D02*
X13641491Y-13303150D01*
X13641491Y-13303150D02*
X13670063Y-13303150D01*
X13670063Y-13303150D02*
X13689110Y-13312674D01*
X13689110Y-13312674D02*
X13698634Y-13331722D01*
X13698634Y-13331722D02*
X13698634Y-13436484D01*
X13698634Y-13331722D02*
X13708158Y-13312674D01*
X13708158Y-13312674D02*
X13727205Y-13303150D01*
X13727205Y-13303150D02*
X13755777Y-13303150D01*
X13755777Y-13303150D02*
X13774824Y-13312674D01*
X13774824Y-13312674D02*
X13784348Y-13331722D01*
X13784348Y-13331722D02*
X13784348Y-13436484D01*
X13879586Y-13436484D02*
X13879586Y-13303150D01*
X13879586Y-13322198D02*
X13889110Y-13312674D01*
X13889110Y-13312674D02*
X13908158Y-13303150D01*
X13908158Y-13303150D02*
X13936729Y-13303150D01*
X13936729Y-13303150D02*
X13955777Y-13312674D01*
X13955777Y-13312674D02*
X13965301Y-13331722D01*
X13965301Y-13331722D02*
X13965301Y-13436484D01*
X13965301Y-13331722D02*
X13974824Y-13312674D01*
X13974824Y-13312674D02*
X13993872Y-13303150D01*
X13993872Y-13303150D02*
X14022443Y-13303150D01*
X14022443Y-13303150D02*
X14041491Y-13312674D01*
X14041491Y-13312674D02*
X14051015Y-13331722D01*
X14051015Y-13331722D02*
X14051015Y-13436484D01*
X14441491Y-13226960D02*
X14270063Y-13484103D01*
X14698634Y-13236484D02*
X14717682Y-13236484D01*
X14717682Y-13236484D02*
X14736729Y-13246008D01*
X14736729Y-13246008D02*
X14746253Y-13255531D01*
X14746253Y-13255531D02*
X14755777Y-13274579D01*
X14755777Y-13274579D02*
X14765301Y-13312674D01*
X14765301Y-13312674D02*
X14765301Y-13360293D01*
X14765301Y-13360293D02*
X14755777Y-13398388D01*
X14755777Y-13398388D02*
X14746253Y-13417436D01*
X14746253Y-13417436D02*
X14736729Y-13426960D01*
X14736729Y-13426960D02*
X14717682Y-13436484D01*
X14717682Y-13436484D02*
X14698634Y-13436484D01*
X14698634Y-13436484D02*
X14679586Y-13426960D01*
X14679586Y-13426960D02*
X14670063Y-13417436D01*
X14670063Y-13417436D02*
X14660539Y-13398388D01*
X14660539Y-13398388D02*
X14651015Y-13360293D01*
X14651015Y-13360293D02*
X14651015Y-13312674D01*
X14651015Y-13312674D02*
X14660539Y-13274579D01*
X14660539Y-13274579D02*
X14670063Y-13255531D01*
X14670063Y-13255531D02*
X14679586Y-13246008D01*
X14679586Y-13246008D02*
X14698634Y-13236484D01*
X14851015Y-13417436D02*
X14860539Y-13426960D01*
X14860539Y-13426960D02*
X14851015Y-13436484D01*
X14851015Y-13436484D02*
X14841491Y-13426960D01*
X14841491Y-13426960D02*
X14851015Y-13417436D01*
X14851015Y-13417436D02*
X14851015Y-13436484D01*
X14984348Y-13236484D02*
X15003396Y-13236484D01*
X15003396Y-13236484D02*
X15022444Y-13246008D01*
X15022444Y-13246008D02*
X15031967Y-13255531D01*
X15031967Y-13255531D02*
X15041491Y-13274579D01*
X15041491Y-13274579D02*
X15051015Y-13312674D01*
X15051015Y-13312674D02*
X15051015Y-13360293D01*
X15051015Y-13360293D02*
X15041491Y-13398388D01*
X15041491Y-13398388D02*
X15031967Y-13417436D01*
X15031967Y-13417436D02*
X15022444Y-13426960D01*
X15022444Y-13426960D02*
X15003396Y-13436484D01*
X15003396Y-13436484D02*
X14984348Y-13436484D01*
X14984348Y-13436484D02*
X14965301Y-13426960D01*
X14965301Y-13426960D02*
X14955777Y-13417436D01*
X14955777Y-13417436D02*
X14946253Y-13398388D01*
X14946253Y-13398388D02*
X14936729Y-13360293D01*
X14936729Y-13360293D02*
X14936729Y-13312674D01*
X14936729Y-13312674D02*
X14946253Y-13274579D01*
X14946253Y-13274579D02*
X14955777Y-13255531D01*
X14955777Y-13255531D02*
X14965301Y-13246008D01*
X14965301Y-13246008D02*
X14984348Y-13236484D01*
X15241491Y-13436484D02*
X15127206Y-13436484D01*
X15184348Y-13436484D02*
X15184348Y-13236484D01*
X15184348Y-13236484D02*
X15165301Y-13265055D01*
X15165301Y-13265055D02*
X15146253Y-13284103D01*
X15146253Y-13284103D02*
X15127206Y-13293627D01*
X15422444Y-13236484D02*
X15327206Y-13236484D01*
X15327206Y-13236484D02*
X15317682Y-13331722D01*
X15317682Y-13331722D02*
X15327206Y-13322198D01*
X15327206Y-13322198D02*
X15346253Y-13312674D01*
X15346253Y-13312674D02*
X15393872Y-13312674D01*
X15393872Y-13312674D02*
X15412920Y-13322198D01*
X15412920Y-13322198D02*
X15422444Y-13331722D01*
X15422444Y-13331722D02*
X15431967Y-13350769D01*
X15431967Y-13350769D02*
X15431967Y-13398388D01*
X15431967Y-13398388D02*
X15422444Y-13417436D01*
X15422444Y-13417436D02*
X15412920Y-13426960D01*
X15412920Y-13426960D02*
X15393872Y-13436484D01*
X15393872Y-13436484D02*
X15346253Y-13436484D01*
X15346253Y-13436484D02*
X15327206Y-13426960D01*
X15327206Y-13426960D02*
X15317682Y-13417436D01*
X15498634Y-13236484D02*
X15631967Y-13236484D01*
X15631967Y-13236484D02*
X15546253Y-13436484D01*
X15698634Y-13236484D02*
X15698634Y-13274579D01*
X15774825Y-13236484D02*
X15774825Y-13274579D01*
X16070063Y-13512674D02*
X16060539Y-13503150D01*
X16060539Y-13503150D02*
X16041491Y-13474579D01*
X16041491Y-13474579D02*
X16031968Y-13455531D01*
X16031968Y-13455531D02*
X16022444Y-13426960D01*
X16022444Y-13426960D02*
X16012920Y-13379341D01*
X16012920Y-13379341D02*
X16012920Y-13341246D01*
X16012920Y-13341246D02*
X16022444Y-13293627D01*
X16022444Y-13293627D02*
X16031968Y-13265055D01*
X16031968Y-13265055D02*
X16041491Y-13246008D01*
X16041491Y-13246008D02*
X16060539Y-13217436D01*
X16060539Y-13217436D02*
X16070063Y-13207912D01*
X16231968Y-13236484D02*
X16193872Y-13236484D01*
X16193872Y-13236484D02*
X16174825Y-13246008D01*
X16174825Y-13246008D02*
X16165301Y-13255531D01*
X16165301Y-13255531D02*
X16146253Y-13284103D01*
X16146253Y-13284103D02*
X16136729Y-13322198D01*
X16136729Y-13322198D02*
X16136729Y-13398388D01*
X16136729Y-13398388D02*
X16146253Y-13417436D01*
X16146253Y-13417436D02*
X16155777Y-13426960D01*
X16155777Y-13426960D02*
X16174825Y-13436484D01*
X16174825Y-13436484D02*
X16212920Y-13436484D01*
X16212920Y-13436484D02*
X16231968Y-13426960D01*
X16231968Y-13426960D02*
X16241491Y-13417436D01*
X16241491Y-13417436D02*
X16251015Y-13398388D01*
X16251015Y-13398388D02*
X16251015Y-13350769D01*
X16251015Y-13350769D02*
X16241491Y-13331722D01*
X16241491Y-13331722D02*
X16231968Y-13322198D01*
X16231968Y-13322198D02*
X16212920Y-13312674D01*
X16212920Y-13312674D02*
X16174825Y-13312674D01*
X16174825Y-13312674D02*
X16155777Y-13322198D01*
X16155777Y-13322198D02*
X16146253Y-13331722D01*
X16146253Y-13331722D02*
X16136729Y-13350769D01*
X16374825Y-13236484D02*
X16393872Y-13236484D01*
X16393872Y-13236484D02*
X16412920Y-13246008D01*
X16412920Y-13246008D02*
X16422444Y-13255531D01*
X16422444Y-13255531D02*
X16431968Y-13274579D01*
X16431968Y-13274579D02*
X16441491Y-13312674D01*
X16441491Y-13312674D02*
X16441491Y-13360293D01*
X16441491Y-13360293D02*
X16431968Y-13398388D01*
X16431968Y-13398388D02*
X16422444Y-13417436D01*
X16422444Y-13417436D02*
X16412920Y-13426960D01*
X16412920Y-13426960D02*
X16393872Y-13436484D01*
X16393872Y-13436484D02*
X16374825Y-13436484D01*
X16374825Y-13436484D02*
X16355777Y-13426960D01*
X16355777Y-13426960D02*
X16346253Y-13417436D01*
X16346253Y-13417436D02*
X16336729Y-13398388D01*
X16336729Y-13398388D02*
X16327206Y-13360293D01*
X16327206Y-13360293D02*
X16327206Y-13312674D01*
X16327206Y-13312674D02*
X16336729Y-13274579D01*
X16336729Y-13274579D02*
X16346253Y-13255531D01*
X16346253Y-13255531D02*
X16355777Y-13246008D01*
X16355777Y-13246008D02*
X16374825Y-13236484D01*
X16679587Y-13436484D02*
X16679587Y-13236484D01*
X16765301Y-13436484D02*
X16765301Y-13331722D01*
X16765301Y-13331722D02*
X16755777Y-13312674D01*
X16755777Y-13312674D02*
X16736730Y-13303150D01*
X16736730Y-13303150D02*
X16708158Y-13303150D01*
X16708158Y-13303150D02*
X16689110Y-13312674D01*
X16689110Y-13312674D02*
X16679587Y-13322198D01*
X16889111Y-13436484D02*
X16870063Y-13426960D01*
X16870063Y-13426960D02*
X16860539Y-13417436D01*
X16860539Y-13417436D02*
X16851015Y-13398388D01*
X16851015Y-13398388D02*
X16851015Y-13341246D01*
X16851015Y-13341246D02*
X16860539Y-13322198D01*
X16860539Y-13322198D02*
X16870063Y-13312674D01*
X16870063Y-13312674D02*
X16889111Y-13303150D01*
X16889111Y-13303150D02*
X16917682Y-13303150D01*
X16917682Y-13303150D02*
X16936730Y-13312674D01*
X16936730Y-13312674D02*
X16946253Y-13322198D01*
X16946253Y-13322198D02*
X16955777Y-13341246D01*
X16955777Y-13341246D02*
X16955777Y-13398388D01*
X16955777Y-13398388D02*
X16946253Y-13417436D01*
X16946253Y-13417436D02*
X16936730Y-13426960D01*
X16936730Y-13426960D02*
X16917682Y-13436484D01*
X16917682Y-13436484D02*
X16889111Y-13436484D01*
X17070063Y-13436484D02*
X17051015Y-13426960D01*
X17051015Y-13426960D02*
X17041492Y-13407912D01*
X17041492Y-13407912D02*
X17041492Y-13236484D01*
X17222444Y-13426960D02*
X17203396Y-13436484D01*
X17203396Y-13436484D02*
X17165301Y-13436484D01*
X17165301Y-13436484D02*
X17146253Y-13426960D01*
X17146253Y-13426960D02*
X17136730Y-13407912D01*
X17136730Y-13407912D02*
X17136730Y-13331722D01*
X17136730Y-13331722D02*
X17146253Y-13312674D01*
X17146253Y-13312674D02*
X17165301Y-13303150D01*
X17165301Y-13303150D02*
X17203396Y-13303150D01*
X17203396Y-13303150D02*
X17222444Y-13312674D01*
X17222444Y-13312674D02*
X17231968Y-13331722D01*
X17231968Y-13331722D02*
X17231968Y-13350769D01*
X17231968Y-13350769D02*
X17136730Y-13369817D01*
X17308158Y-13426960D02*
X17327206Y-13436484D01*
X17327206Y-13436484D02*
X17365301Y-13436484D01*
X17365301Y-13436484D02*
X17384349Y-13426960D01*
X17384349Y-13426960D02*
X17393873Y-13407912D01*
X17393873Y-13407912D02*
X17393873Y-13398388D01*
X17393873Y-13398388D02*
X17384349Y-13379341D01*
X17384349Y-13379341D02*
X17365301Y-13369817D01*
X17365301Y-13369817D02*
X17336730Y-13369817D01*
X17336730Y-13369817D02*
X17317682Y-13360293D01*
X17317682Y-13360293D02*
X17308158Y-13341246D01*
X17308158Y-13341246D02*
X17308158Y-13331722D01*
X17308158Y-13331722D02*
X17317682Y-13312674D01*
X17317682Y-13312674D02*
X17336730Y-13303150D01*
X17336730Y-13303150D02*
X17365301Y-13303150D01*
X17365301Y-13303150D02*
X17384349Y-13312674D01*
X17460539Y-13512674D02*
X17470063Y-13503150D01*
X17470063Y-13503150D02*
X17489111Y-13474579D01*
X17489111Y-13474579D02*
X17498634Y-13455531D01*
X17498634Y-13455531D02*
X17508158Y-13426960D01*
X17508158Y-13426960D02*
X17517682Y-13379341D01*
X17517682Y-13379341D02*
X17517682Y-13341246D01*
X17517682Y-13341246D02*
X17508158Y-13293627D01*
X17508158Y-13293627D02*
X17498634Y-13265055D01*
X17498634Y-13265055D02*
X17489111Y-13246008D01*
X17489111Y-13246008D02*
X17470063Y-13217436D01*
X17470063Y-13217436D02*
X17460539Y-13207912D01*
D12*
X12495000Y-13609000D02*
G75*
G03*
X12495000Y-13609000I-55000J0D01*
G01*
D11*
X12860539Y-13700484D02*
X12746253Y-13700484D01*
X12803396Y-13700484D02*
X12803396Y-13500484D01*
X12803396Y-13500484D02*
X12784348Y-13529055D01*
X12784348Y-13529055D02*
X12765301Y-13548103D01*
X12765301Y-13548103D02*
X12746253Y-13557627D01*
X12946253Y-13681436D02*
X12955777Y-13690960D01*
X12955777Y-13690960D02*
X12946253Y-13700484D01*
X12946253Y-13700484D02*
X12936729Y-13690960D01*
X12936729Y-13690960D02*
X12946253Y-13681436D01*
X12946253Y-13681436D02*
X12946253Y-13700484D01*
X13146253Y-13700484D02*
X13031967Y-13700484D01*
X13089110Y-13700484D02*
X13089110Y-13500484D01*
X13089110Y-13500484D02*
X13070062Y-13529055D01*
X13070062Y-13529055D02*
X13051015Y-13548103D01*
X13051015Y-13548103D02*
X13031967Y-13557627D01*
X13270062Y-13500484D02*
X13289110Y-13500484D01*
X13289110Y-13500484D02*
X13308158Y-13510008D01*
X13308158Y-13510008D02*
X13317682Y-13519531D01*
X13317682Y-13519531D02*
X13327205Y-13538579D01*
X13327205Y-13538579D02*
X13336729Y-13576674D01*
X13336729Y-13576674D02*
X13336729Y-13624293D01*
X13336729Y-13624293D02*
X13327205Y-13662388D01*
X13327205Y-13662388D02*
X13317682Y-13681436D01*
X13317682Y-13681436D02*
X13308158Y-13690960D01*
X13308158Y-13690960D02*
X13289110Y-13700484D01*
X13289110Y-13700484D02*
X13270062Y-13700484D01*
X13270062Y-13700484D02*
X13251015Y-13690960D01*
X13251015Y-13690960D02*
X13241491Y-13681436D01*
X13241491Y-13681436D02*
X13231967Y-13662388D01*
X13231967Y-13662388D02*
X13222443Y-13624293D01*
X13222443Y-13624293D02*
X13222443Y-13576674D01*
X13222443Y-13576674D02*
X13231967Y-13538579D01*
X13231967Y-13538579D02*
X13241491Y-13519531D01*
X13241491Y-13519531D02*
X13251015Y-13510008D01*
X13251015Y-13510008D02*
X13270062Y-13500484D01*
X13460539Y-13500484D02*
X13479586Y-13500484D01*
X13479586Y-13500484D02*
X13498634Y-13510008D01*
X13498634Y-13510008D02*
X13508158Y-13519531D01*
X13508158Y-13519531D02*
X13517682Y-13538579D01*
X13517682Y-13538579D02*
X13527205Y-13576674D01*
X13527205Y-13576674D02*
X13527205Y-13624293D01*
X13527205Y-13624293D02*
X13517682Y-13662388D01*
X13517682Y-13662388D02*
X13508158Y-13681436D01*
X13508158Y-13681436D02*
X13498634Y-13690960D01*
X13498634Y-13690960D02*
X13479586Y-13700484D01*
X13479586Y-13700484D02*
X13460539Y-13700484D01*
X13460539Y-13700484D02*
X13441491Y-13690960D01*
X13441491Y-13690960D02*
X13431967Y-13681436D01*
X13431967Y-13681436D02*
X13422443Y-13662388D01*
X13422443Y-13662388D02*
X13412920Y-13624293D01*
X13412920Y-13624293D02*
X13412920Y-13576674D01*
X13412920Y-13576674D02*
X13422443Y-13538579D01*
X13422443Y-13538579D02*
X13431967Y-13519531D01*
X13431967Y-13519531D02*
X13441491Y-13510008D01*
X13441491Y-13510008D02*
X13460539Y-13500484D01*
X13612920Y-13700484D02*
X13612920Y-13567150D01*
X13612920Y-13586198D02*
X13622443Y-13576674D01*
X13622443Y-13576674D02*
X13641491Y-13567150D01*
X13641491Y-13567150D02*
X13670063Y-13567150D01*
X13670063Y-13567150D02*
X13689110Y-13576674D01*
X13689110Y-13576674D02*
X13698634Y-13595722D01*
X13698634Y-13595722D02*
X13698634Y-13700484D01*
X13698634Y-13595722D02*
X13708158Y-13576674D01*
X13708158Y-13576674D02*
X13727205Y-13567150D01*
X13727205Y-13567150D02*
X13755777Y-13567150D01*
X13755777Y-13567150D02*
X13774824Y-13576674D01*
X13774824Y-13576674D02*
X13784348Y-13595722D01*
X13784348Y-13595722D02*
X13784348Y-13700484D01*
X13879586Y-13700484D02*
X13879586Y-13567150D01*
X13879586Y-13586198D02*
X13889110Y-13576674D01*
X13889110Y-13576674D02*
X13908158Y-13567150D01*
X13908158Y-13567150D02*
X13936729Y-13567150D01*
X13936729Y-13567150D02*
X13955777Y-13576674D01*
X13955777Y-13576674D02*
X13965301Y-13595722D01*
X13965301Y-13595722D02*
X13965301Y-13700484D01*
X13965301Y-13595722D02*
X13974824Y-13576674D01*
X13974824Y-13576674D02*
X13993872Y-13567150D01*
X13993872Y-13567150D02*
X14022443Y-13567150D01*
X14022443Y-13567150D02*
X14041491Y-13576674D01*
X14041491Y-13576674D02*
X14051015Y-13595722D01*
X14051015Y-13595722D02*
X14051015Y-13700484D01*
X14441491Y-13490960D02*
X14270063Y-13748103D01*
X14698634Y-13500484D02*
X14717682Y-13500484D01*
X14717682Y-13500484D02*
X14736729Y-13510008D01*
X14736729Y-13510008D02*
X14746253Y-13519531D01*
X14746253Y-13519531D02*
X14755777Y-13538579D01*
X14755777Y-13538579D02*
X14765301Y-13576674D01*
X14765301Y-13576674D02*
X14765301Y-13624293D01*
X14765301Y-13624293D02*
X14755777Y-13662388D01*
X14755777Y-13662388D02*
X14746253Y-13681436D01*
X14746253Y-13681436D02*
X14736729Y-13690960D01*
X14736729Y-13690960D02*
X14717682Y-13700484D01*
X14717682Y-13700484D02*
X14698634Y-13700484D01*
X14698634Y-13700484D02*
X14679586Y-13690960D01*
X14679586Y-13690960D02*
X14670063Y-13681436D01*
X14670063Y-13681436D02*
X14660539Y-13662388D01*
X14660539Y-13662388D02*
X14651015Y-13624293D01*
X14651015Y-13624293D02*
X14651015Y-13576674D01*
X14651015Y-13576674D02*
X14660539Y-13538579D01*
X14660539Y-13538579D02*
X14670063Y-13519531D01*
X14670063Y-13519531D02*
X14679586Y-13510008D01*
X14679586Y-13510008D02*
X14698634Y-13500484D01*
X14851015Y-13681436D02*
X14860539Y-13690960D01*
X14860539Y-13690960D02*
X14851015Y-13700484D01*
X14851015Y-13700484D02*
X14841491Y-13690960D01*
X14841491Y-13690960D02*
X14851015Y-13681436D01*
X14851015Y-13681436D02*
X14851015Y-13700484D01*
X14984348Y-13500484D02*
X15003396Y-13500484D01*
X15003396Y-13500484D02*
X15022444Y-13510008D01*
X15022444Y-13510008D02*
X15031967Y-13519531D01*
X15031967Y-13519531D02*
X15041491Y-13538579D01*
X15041491Y-13538579D02*
X15051015Y-13576674D01*
X15051015Y-13576674D02*
X15051015Y-13624293D01*
X15051015Y-13624293D02*
X15041491Y-13662388D01*
X15041491Y-13662388D02*
X15031967Y-13681436D01*
X15031967Y-13681436D02*
X15022444Y-13690960D01*
X15022444Y-13690960D02*
X15003396Y-13700484D01*
X15003396Y-13700484D02*
X14984348Y-13700484D01*
X14984348Y-13700484D02*
X14965301Y-13690960D01*
X14965301Y-13690960D02*
X14955777Y-13681436D01*
X14955777Y-13681436D02*
X14946253Y-13662388D01*
X14946253Y-13662388D02*
X14936729Y-13624293D01*
X14936729Y-13624293D02*
X14936729Y-13576674D01*
X14936729Y-13576674D02*
X14946253Y-13538579D01*
X14946253Y-13538579D02*
X14955777Y-13519531D01*
X14955777Y-13519531D02*
X14965301Y-13510008D01*
X14965301Y-13510008D02*
X14984348Y-13500484D01*
X15222444Y-13567150D02*
X15222444Y-13700484D01*
X15174825Y-13490960D02*
X15127206Y-13633817D01*
X15127206Y-13633817D02*
X15251015Y-13633817D01*
X15308158Y-13500484D02*
X15431967Y-13500484D01*
X15431967Y-13500484D02*
X15365301Y-13576674D01*
X15365301Y-13576674D02*
X15393872Y-13576674D01*
X15393872Y-13576674D02*
X15412920Y-13586198D01*
X15412920Y-13586198D02*
X15422444Y-13595722D01*
X15422444Y-13595722D02*
X15431967Y-13614769D01*
X15431967Y-13614769D02*
X15431967Y-13662388D01*
X15431967Y-13662388D02*
X15422444Y-13681436D01*
X15422444Y-13681436D02*
X15412920Y-13690960D01*
X15412920Y-13690960D02*
X15393872Y-13700484D01*
X15393872Y-13700484D02*
X15336729Y-13700484D01*
X15336729Y-13700484D02*
X15317682Y-13690960D01*
X15317682Y-13690960D02*
X15308158Y-13681436D01*
X15498634Y-13500484D02*
X15622444Y-13500484D01*
X15622444Y-13500484D02*
X15555777Y-13576674D01*
X15555777Y-13576674D02*
X15584348Y-13576674D01*
X15584348Y-13576674D02*
X15603396Y-13586198D01*
X15603396Y-13586198D02*
X15612920Y-13595722D01*
X15612920Y-13595722D02*
X15622444Y-13614769D01*
X15622444Y-13614769D02*
X15622444Y-13662388D01*
X15622444Y-13662388D02*
X15612920Y-13681436D01*
X15612920Y-13681436D02*
X15603396Y-13690960D01*
X15603396Y-13690960D02*
X15584348Y-13700484D01*
X15584348Y-13700484D02*
X15527206Y-13700484D01*
X15527206Y-13700484D02*
X15508158Y-13690960D01*
X15508158Y-13690960D02*
X15498634Y-13681436D01*
X15698634Y-13500484D02*
X15698634Y-13538579D01*
X15774825Y-13500484D02*
X15774825Y-13538579D01*
X16070063Y-13776674D02*
X16060539Y-13767150D01*
X16060539Y-13767150D02*
X16041491Y-13738579D01*
X16041491Y-13738579D02*
X16031968Y-13719531D01*
X16031968Y-13719531D02*
X16022444Y-13690960D01*
X16022444Y-13690960D02*
X16012920Y-13643341D01*
X16012920Y-13643341D02*
X16012920Y-13605246D01*
X16012920Y-13605246D02*
X16022444Y-13557627D01*
X16022444Y-13557627D02*
X16031968Y-13529055D01*
X16031968Y-13529055D02*
X16041491Y-13510008D01*
X16041491Y-13510008D02*
X16060539Y-13481436D01*
X16060539Y-13481436D02*
X16070063Y-13471912D01*
X16231968Y-13567150D02*
X16231968Y-13700484D01*
X16184348Y-13490960D02*
X16136729Y-13633817D01*
X16136729Y-13633817D02*
X16260539Y-13633817D01*
X16374825Y-13500484D02*
X16393872Y-13500484D01*
X16393872Y-13500484D02*
X16412920Y-13510008D01*
X16412920Y-13510008D02*
X16422444Y-13519531D01*
X16422444Y-13519531D02*
X16431968Y-13538579D01*
X16431968Y-13538579D02*
X16441491Y-13576674D01*
X16441491Y-13576674D02*
X16441491Y-13624293D01*
X16441491Y-13624293D02*
X16431968Y-13662388D01*
X16431968Y-13662388D02*
X16422444Y-13681436D01*
X16422444Y-13681436D02*
X16412920Y-13690960D01*
X16412920Y-13690960D02*
X16393872Y-13700484D01*
X16393872Y-13700484D02*
X16374825Y-13700484D01*
X16374825Y-13700484D02*
X16355777Y-13690960D01*
X16355777Y-13690960D02*
X16346253Y-13681436D01*
X16346253Y-13681436D02*
X16336729Y-13662388D01*
X16336729Y-13662388D02*
X16327206Y-13624293D01*
X16327206Y-13624293D02*
X16327206Y-13576674D01*
X16327206Y-13576674D02*
X16336729Y-13538579D01*
X16336729Y-13538579D02*
X16346253Y-13519531D01*
X16346253Y-13519531D02*
X16355777Y-13510008D01*
X16355777Y-13510008D02*
X16374825Y-13500484D01*
X16679587Y-13700484D02*
X16679587Y-13500484D01*
X16765301Y-13700484D02*
X16765301Y-13595722D01*
X16765301Y-13595722D02*
X16755777Y-13576674D01*
X16755777Y-13576674D02*
X16736730Y-13567150D01*
X16736730Y-13567150D02*
X16708158Y-13567150D01*
X16708158Y-13567150D02*
X16689110Y-13576674D01*
X16689110Y-13576674D02*
X16679587Y-13586198D01*
X16889111Y-13700484D02*
X16870063Y-13690960D01*
X16870063Y-13690960D02*
X16860539Y-13681436D01*
X16860539Y-13681436D02*
X16851015Y-13662388D01*
X16851015Y-13662388D02*
X16851015Y-13605246D01*
X16851015Y-13605246D02*
X16860539Y-13586198D01*
X16860539Y-13586198D02*
X16870063Y-13576674D01*
X16870063Y-13576674D02*
X16889111Y-13567150D01*
X16889111Y-13567150D02*
X16917682Y-13567150D01*
X16917682Y-13567150D02*
X16936730Y-13576674D01*
X16936730Y-13576674D02*
X16946253Y-13586198D01*
X16946253Y-13586198D02*
X16955777Y-13605246D01*
X16955777Y-13605246D02*
X16955777Y-13662388D01*
X16955777Y-13662388D02*
X16946253Y-13681436D01*
X16946253Y-13681436D02*
X16936730Y-13690960D01*
X16936730Y-13690960D02*
X16917682Y-13700484D01*
X16917682Y-13700484D02*
X16889111Y-13700484D01*
X17070063Y-13700484D02*
X17051015Y-13690960D01*
X17051015Y-13690960D02*
X17041492Y-13671912D01*
X17041492Y-13671912D02*
X17041492Y-13500484D01*
X17222444Y-13690960D02*
X17203396Y-13700484D01*
X17203396Y-13700484D02*
X17165301Y-13700484D01*
X17165301Y-13700484D02*
X17146253Y-13690960D01*
X17146253Y-13690960D02*
X17136730Y-13671912D01*
X17136730Y-13671912D02*
X17136730Y-13595722D01*
X17136730Y-13595722D02*
X17146253Y-13576674D01*
X17146253Y-13576674D02*
X17165301Y-13567150D01*
X17165301Y-13567150D02*
X17203396Y-13567150D01*
X17203396Y-13567150D02*
X17222444Y-13576674D01*
X17222444Y-13576674D02*
X17231968Y-13595722D01*
X17231968Y-13595722D02*
X17231968Y-13614769D01*
X17231968Y-13614769D02*
X17136730Y-13633817D01*
X17308158Y-13690960D02*
X17327206Y-13700484D01*
X17327206Y-13700484D02*
X17365301Y-13700484D01*
X17365301Y-13700484D02*
X17384349Y-13690960D01*
X17384349Y-13690960D02*
X17393873Y-13671912D01*
X17393873Y-13671912D02*
X17393873Y-13662388D01*
X17393873Y-13662388D02*
X17384349Y-13643341D01*
X17384349Y-13643341D02*
X17365301Y-13633817D01*
X17365301Y-13633817D02*
X17336730Y-13633817D01*
X17336730Y-13633817D02*
X17317682Y-13624293D01*
X17317682Y-13624293D02*
X17308158Y-13605246D01*
X17308158Y-13605246D02*
X17308158Y-13595722D01*
X17308158Y-13595722D02*
X17317682Y-13576674D01*
X17317682Y-13576674D02*
X17336730Y-13567150D01*
X17336730Y-13567150D02*
X17365301Y-13567150D01*
X17365301Y-13567150D02*
X17384349Y-13576674D01*
X17460539Y-13776674D02*
X17470063Y-13767150D01*
X17470063Y-13767150D02*
X17489111Y-13738579D01*
X17489111Y-13738579D02*
X17498634Y-13719531D01*
X17498634Y-13719531D02*
X17508158Y-13690960D01*
X17508158Y-13690960D02*
X17517682Y-13643341D01*
X17517682Y-13643341D02*
X17517682Y-13605246D01*
X17517682Y-13605246D02*
X17508158Y-13557627D01*
X17508158Y-13557627D02*
X17498634Y-13529055D01*
X17498634Y-13529055D02*
X17489111Y-13510008D01*
X17489111Y-13510008D02*
X17470063Y-13481436D01*
X17470063Y-13481436D02*
X17460539Y-13471912D01*
D13*
X12435500Y-13813500D02*
X12435500Y-13932500D01*
X12376000Y-13873000D02*
X12495000Y-13873000D01*
D11*
X12860539Y-13964484D02*
X12746253Y-13964484D01*
X12803396Y-13964484D02*
X12803396Y-13764484D01*
X12803396Y-13764484D02*
X12784348Y-13793055D01*
X12784348Y-13793055D02*
X12765301Y-13812103D01*
X12765301Y-13812103D02*
X12746253Y-13821627D01*
X12946253Y-13945436D02*
X12955777Y-13954960D01*
X12955777Y-13954960D02*
X12946253Y-13964484D01*
X12946253Y-13964484D02*
X12936729Y-13954960D01*
X12936729Y-13954960D02*
X12946253Y-13945436D01*
X12946253Y-13945436D02*
X12946253Y-13964484D01*
X13146253Y-13964484D02*
X13031967Y-13964484D01*
X13089110Y-13964484D02*
X13089110Y-13764484D01*
X13089110Y-13764484D02*
X13070062Y-13793055D01*
X13070062Y-13793055D02*
X13051015Y-13812103D01*
X13051015Y-13812103D02*
X13031967Y-13821627D01*
X13241491Y-13964484D02*
X13279586Y-13964484D01*
X13279586Y-13964484D02*
X13298634Y-13954960D01*
X13298634Y-13954960D02*
X13308158Y-13945436D01*
X13308158Y-13945436D02*
X13327205Y-13916865D01*
X13327205Y-13916865D02*
X13336729Y-13878769D01*
X13336729Y-13878769D02*
X13336729Y-13802579D01*
X13336729Y-13802579D02*
X13327205Y-13783531D01*
X13327205Y-13783531D02*
X13317682Y-13774008D01*
X13317682Y-13774008D02*
X13298634Y-13764484D01*
X13298634Y-13764484D02*
X13260539Y-13764484D01*
X13260539Y-13764484D02*
X13241491Y-13774008D01*
X13241491Y-13774008D02*
X13231967Y-13783531D01*
X13231967Y-13783531D02*
X13222443Y-13802579D01*
X13222443Y-13802579D02*
X13222443Y-13850198D01*
X13222443Y-13850198D02*
X13231967Y-13869246D01*
X13231967Y-13869246D02*
X13241491Y-13878769D01*
X13241491Y-13878769D02*
X13260539Y-13888293D01*
X13260539Y-13888293D02*
X13298634Y-13888293D01*
X13298634Y-13888293D02*
X13317682Y-13878769D01*
X13317682Y-13878769D02*
X13327205Y-13869246D01*
X13327205Y-13869246D02*
X13336729Y-13850198D01*
X13460539Y-13764484D02*
X13479586Y-13764484D01*
X13479586Y-13764484D02*
X13498634Y-13774008D01*
X13498634Y-13774008D02*
X13508158Y-13783531D01*
X13508158Y-13783531D02*
X13517682Y-13802579D01*
X13517682Y-13802579D02*
X13527205Y-13840674D01*
X13527205Y-13840674D02*
X13527205Y-13888293D01*
X13527205Y-13888293D02*
X13517682Y-13926388D01*
X13517682Y-13926388D02*
X13508158Y-13945436D01*
X13508158Y-13945436D02*
X13498634Y-13954960D01*
X13498634Y-13954960D02*
X13479586Y-13964484D01*
X13479586Y-13964484D02*
X13460539Y-13964484D01*
X13460539Y-13964484D02*
X13441491Y-13954960D01*
X13441491Y-13954960D02*
X13431967Y-13945436D01*
X13431967Y-13945436D02*
X13422443Y-13926388D01*
X13422443Y-13926388D02*
X13412920Y-13888293D01*
X13412920Y-13888293D02*
X13412920Y-13840674D01*
X13412920Y-13840674D02*
X13422443Y-13802579D01*
X13422443Y-13802579D02*
X13431967Y-13783531D01*
X13431967Y-13783531D02*
X13441491Y-13774008D01*
X13441491Y-13774008D02*
X13460539Y-13764484D01*
X13612920Y-13964484D02*
X13612920Y-13831150D01*
X13612920Y-13850198D02*
X13622443Y-13840674D01*
X13622443Y-13840674D02*
X13641491Y-13831150D01*
X13641491Y-13831150D02*
X13670063Y-13831150D01*
X13670063Y-13831150D02*
X13689110Y-13840674D01*
X13689110Y-13840674D02*
X13698634Y-13859722D01*
X13698634Y-13859722D02*
X13698634Y-13964484D01*
X13698634Y-13859722D02*
X13708158Y-13840674D01*
X13708158Y-13840674D02*
X13727205Y-13831150D01*
X13727205Y-13831150D02*
X13755777Y-13831150D01*
X13755777Y-13831150D02*
X13774824Y-13840674D01*
X13774824Y-13840674D02*
X13784348Y-13859722D01*
X13784348Y-13859722D02*
X13784348Y-13964484D01*
X13879586Y-13964484D02*
X13879586Y-13831150D01*
X13879586Y-13850198D02*
X13889110Y-13840674D01*
X13889110Y-13840674D02*
X13908158Y-13831150D01*
X13908158Y-13831150D02*
X13936729Y-13831150D01*
X13936729Y-13831150D02*
X13955777Y-13840674D01*
X13955777Y-13840674D02*
X13965301Y-13859722D01*
X13965301Y-13859722D02*
X13965301Y-13964484D01*
X13965301Y-13859722D02*
X13974824Y-13840674D01*
X13974824Y-13840674D02*
X13993872Y-13831150D01*
X13993872Y-13831150D02*
X14022443Y-13831150D01*
X14022443Y-13831150D02*
X14041491Y-13840674D01*
X14041491Y-13840674D02*
X14051015Y-13859722D01*
X14051015Y-13859722D02*
X14051015Y-13964484D01*
X14441491Y-13754960D02*
X14270063Y-14012103D01*
X14698634Y-13764484D02*
X14717682Y-13764484D01*
X14717682Y-13764484D02*
X14736729Y-13774008D01*
X14736729Y-13774008D02*
X14746253Y-13783531D01*
X14746253Y-13783531D02*
X14755777Y-13802579D01*
X14755777Y-13802579D02*
X14765301Y-13840674D01*
X14765301Y-13840674D02*
X14765301Y-13888293D01*
X14765301Y-13888293D02*
X14755777Y-13926388D01*
X14755777Y-13926388D02*
X14746253Y-13945436D01*
X14746253Y-13945436D02*
X14736729Y-13954960D01*
X14736729Y-13954960D02*
X14717682Y-13964484D01*
X14717682Y-13964484D02*
X14698634Y-13964484D01*
X14698634Y-13964484D02*
X14679586Y-13954960D01*
X14679586Y-13954960D02*
X14670063Y-13945436D01*
X14670063Y-13945436D02*
X14660539Y-13926388D01*
X14660539Y-13926388D02*
X14651015Y-13888293D01*
X14651015Y-13888293D02*
X14651015Y-13840674D01*
X14651015Y-13840674D02*
X14660539Y-13802579D01*
X14660539Y-13802579D02*
X14670063Y-13783531D01*
X14670063Y-13783531D02*
X14679586Y-13774008D01*
X14679586Y-13774008D02*
X14698634Y-13764484D01*
X14851015Y-13945436D02*
X14860539Y-13954960D01*
X14860539Y-13954960D02*
X14851015Y-13964484D01*
X14851015Y-13964484D02*
X14841491Y-13954960D01*
X14841491Y-13954960D02*
X14851015Y-13945436D01*
X14851015Y-13945436D02*
X14851015Y-13964484D01*
X14984348Y-13764484D02*
X15003396Y-13764484D01*
X15003396Y-13764484D02*
X15022444Y-13774008D01*
X15022444Y-13774008D02*
X15031967Y-13783531D01*
X15031967Y-13783531D02*
X15041491Y-13802579D01*
X15041491Y-13802579D02*
X15051015Y-13840674D01*
X15051015Y-13840674D02*
X15051015Y-13888293D01*
X15051015Y-13888293D02*
X15041491Y-13926388D01*
X15041491Y-13926388D02*
X15031967Y-13945436D01*
X15031967Y-13945436D02*
X15022444Y-13954960D01*
X15022444Y-13954960D02*
X15003396Y-13964484D01*
X15003396Y-13964484D02*
X14984348Y-13964484D01*
X14984348Y-13964484D02*
X14965301Y-13954960D01*
X14965301Y-13954960D02*
X14955777Y-13945436D01*
X14955777Y-13945436D02*
X14946253Y-13926388D01*
X14946253Y-13926388D02*
X14936729Y-13888293D01*
X14936729Y-13888293D02*
X14936729Y-13840674D01*
X14936729Y-13840674D02*
X14946253Y-13802579D01*
X14946253Y-13802579D02*
X14955777Y-13783531D01*
X14955777Y-13783531D02*
X14965301Y-13774008D01*
X14965301Y-13774008D02*
X14984348Y-13764484D01*
X15222444Y-13831150D02*
X15222444Y-13964484D01*
X15174825Y-13754960D02*
X15127206Y-13897817D01*
X15127206Y-13897817D02*
X15251015Y-13897817D01*
X15412920Y-13764484D02*
X15374825Y-13764484D01*
X15374825Y-13764484D02*
X15355777Y-13774008D01*
X15355777Y-13774008D02*
X15346253Y-13783531D01*
X15346253Y-13783531D02*
X15327206Y-13812103D01*
X15327206Y-13812103D02*
X15317682Y-13850198D01*
X15317682Y-13850198D02*
X15317682Y-13926388D01*
X15317682Y-13926388D02*
X15327206Y-13945436D01*
X15327206Y-13945436D02*
X15336729Y-13954960D01*
X15336729Y-13954960D02*
X15355777Y-13964484D01*
X15355777Y-13964484D02*
X15393872Y-13964484D01*
X15393872Y-13964484D02*
X15412920Y-13954960D01*
X15412920Y-13954960D02*
X15422444Y-13945436D01*
X15422444Y-13945436D02*
X15431967Y-13926388D01*
X15431967Y-13926388D02*
X15431967Y-13878769D01*
X15431967Y-13878769D02*
X15422444Y-13859722D01*
X15422444Y-13859722D02*
X15412920Y-13850198D01*
X15412920Y-13850198D02*
X15393872Y-13840674D01*
X15393872Y-13840674D02*
X15355777Y-13840674D01*
X15355777Y-13840674D02*
X15336729Y-13850198D01*
X15336729Y-13850198D02*
X15327206Y-13859722D01*
X15327206Y-13859722D02*
X15317682Y-13878769D01*
X15527206Y-13964484D02*
X15565301Y-13964484D01*
X15565301Y-13964484D02*
X15584348Y-13954960D01*
X15584348Y-13954960D02*
X15593872Y-13945436D01*
X15593872Y-13945436D02*
X15612920Y-13916865D01*
X15612920Y-13916865D02*
X15622444Y-13878769D01*
X15622444Y-13878769D02*
X15622444Y-13802579D01*
X15622444Y-13802579D02*
X15612920Y-13783531D01*
X15612920Y-13783531D02*
X15603396Y-13774008D01*
X15603396Y-13774008D02*
X15584348Y-13764484D01*
X15584348Y-13764484D02*
X15546253Y-13764484D01*
X15546253Y-13764484D02*
X15527206Y-13774008D01*
X15527206Y-13774008D02*
X15517682Y-13783531D01*
X15517682Y-13783531D02*
X15508158Y-13802579D01*
X15508158Y-13802579D02*
X15508158Y-13850198D01*
X15508158Y-13850198D02*
X15517682Y-13869246D01*
X15517682Y-13869246D02*
X15527206Y-13878769D01*
X15527206Y-13878769D02*
X15546253Y-13888293D01*
X15546253Y-13888293D02*
X15584348Y-13888293D01*
X15584348Y-13888293D02*
X15603396Y-13878769D01*
X15603396Y-13878769D02*
X15612920Y-13869246D01*
X15612920Y-13869246D02*
X15622444Y-13850198D01*
X15698634Y-13764484D02*
X15698634Y-13802579D01*
X15774825Y-13764484D02*
X15774825Y-13802579D01*
X16070063Y-14040674D02*
X16060539Y-14031150D01*
X16060539Y-14031150D02*
X16041491Y-14002579D01*
X16041491Y-14002579D02*
X16031968Y-13983531D01*
X16031968Y-13983531D02*
X16022444Y-13954960D01*
X16022444Y-13954960D02*
X16012920Y-13907341D01*
X16012920Y-13907341D02*
X16012920Y-13869246D01*
X16012920Y-13869246D02*
X16022444Y-13821627D01*
X16022444Y-13821627D02*
X16031968Y-13793055D01*
X16031968Y-13793055D02*
X16041491Y-13774008D01*
X16041491Y-13774008D02*
X16060539Y-13745436D01*
X16060539Y-13745436D02*
X16070063Y-13735912D01*
X16231968Y-13764484D02*
X16193872Y-13764484D01*
X16193872Y-13764484D02*
X16174825Y-13774008D01*
X16174825Y-13774008D02*
X16165301Y-13783531D01*
X16165301Y-13783531D02*
X16146253Y-13812103D01*
X16146253Y-13812103D02*
X16136729Y-13850198D01*
X16136729Y-13850198D02*
X16136729Y-13926388D01*
X16136729Y-13926388D02*
X16146253Y-13945436D01*
X16146253Y-13945436D02*
X16155777Y-13954960D01*
X16155777Y-13954960D02*
X16174825Y-13964484D01*
X16174825Y-13964484D02*
X16212920Y-13964484D01*
X16212920Y-13964484D02*
X16231968Y-13954960D01*
X16231968Y-13954960D02*
X16241491Y-13945436D01*
X16241491Y-13945436D02*
X16251015Y-13926388D01*
X16251015Y-13926388D02*
X16251015Y-13878769D01*
X16251015Y-13878769D02*
X16241491Y-13859722D01*
X16241491Y-13859722D02*
X16231968Y-13850198D01*
X16231968Y-13850198D02*
X16212920Y-13840674D01*
X16212920Y-13840674D02*
X16174825Y-13840674D01*
X16174825Y-13840674D02*
X16155777Y-13850198D01*
X16155777Y-13850198D02*
X16146253Y-13859722D01*
X16146253Y-13859722D02*
X16136729Y-13878769D01*
X16327206Y-13783531D02*
X16336729Y-13774008D01*
X16336729Y-13774008D02*
X16355777Y-13764484D01*
X16355777Y-13764484D02*
X16403396Y-13764484D01*
X16403396Y-13764484D02*
X16422444Y-13774008D01*
X16422444Y-13774008D02*
X16431968Y-13783531D01*
X16431968Y-13783531D02*
X16441491Y-13802579D01*
X16441491Y-13802579D02*
X16441491Y-13821627D01*
X16441491Y-13821627D02*
X16431968Y-13850198D01*
X16431968Y-13850198D02*
X16317682Y-13964484D01*
X16317682Y-13964484D02*
X16441491Y-13964484D01*
X16679587Y-13964484D02*
X16679587Y-13764484D01*
X16765301Y-13964484D02*
X16765301Y-13859722D01*
X16765301Y-13859722D02*
X16755777Y-13840674D01*
X16755777Y-13840674D02*
X16736730Y-13831150D01*
X16736730Y-13831150D02*
X16708158Y-13831150D01*
X16708158Y-13831150D02*
X16689110Y-13840674D01*
X16689110Y-13840674D02*
X16679587Y-13850198D01*
X16889111Y-13964484D02*
X16870063Y-13954960D01*
X16870063Y-13954960D02*
X16860539Y-13945436D01*
X16860539Y-13945436D02*
X16851015Y-13926388D01*
X16851015Y-13926388D02*
X16851015Y-13869246D01*
X16851015Y-13869246D02*
X16860539Y-13850198D01*
X16860539Y-13850198D02*
X16870063Y-13840674D01*
X16870063Y-13840674D02*
X16889111Y-13831150D01*
X16889111Y-13831150D02*
X16917682Y-13831150D01*
X16917682Y-13831150D02*
X16936730Y-13840674D01*
X16936730Y-13840674D02*
X16946253Y-13850198D01*
X16946253Y-13850198D02*
X16955777Y-13869246D01*
X16955777Y-13869246D02*
X16955777Y-13926388D01*
X16955777Y-13926388D02*
X16946253Y-13945436D01*
X16946253Y-13945436D02*
X16936730Y-13954960D01*
X16936730Y-13954960D02*
X16917682Y-13964484D01*
X16917682Y-13964484D02*
X16889111Y-13964484D01*
X17070063Y-13964484D02*
X17051015Y-13954960D01*
X17051015Y-13954960D02*
X17041492Y-13935912D01*
X17041492Y-13935912D02*
X17041492Y-13764484D01*
X17222444Y-13954960D02*
X17203396Y-13964484D01*
X17203396Y-13964484D02*
X17165301Y-13964484D01*
X17165301Y-13964484D02*
X17146253Y-13954960D01*
X17146253Y-13954960D02*
X17136730Y-13935912D01*
X17136730Y-13935912D02*
X17136730Y-13859722D01*
X17136730Y-13859722D02*
X17146253Y-13840674D01*
X17146253Y-13840674D02*
X17165301Y-13831150D01*
X17165301Y-13831150D02*
X17203396Y-13831150D01*
X17203396Y-13831150D02*
X17222444Y-13840674D01*
X17222444Y-13840674D02*
X17231968Y-13859722D01*
X17231968Y-13859722D02*
X17231968Y-13878769D01*
X17231968Y-13878769D02*
X17136730Y-13897817D01*
X17308158Y-13954960D02*
X17327206Y-13964484D01*
X17327206Y-13964484D02*
X17365301Y-13964484D01*
X17365301Y-13964484D02*
X17384349Y-13954960D01*
X17384349Y-13954960D02*
X17393873Y-13935912D01*
X17393873Y-13935912D02*
X17393873Y-13926388D01*
X17393873Y-13926388D02*
X17384349Y-13907341D01*
X17384349Y-13907341D02*
X17365301Y-13897817D01*
X17365301Y-13897817D02*
X17336730Y-13897817D01*
X17336730Y-13897817D02*
X17317682Y-13888293D01*
X17317682Y-13888293D02*
X17308158Y-13869246D01*
X17308158Y-13869246D02*
X17308158Y-13859722D01*
X17308158Y-13859722D02*
X17317682Y-13840674D01*
X17317682Y-13840674D02*
X17336730Y-13831150D01*
X17336730Y-13831150D02*
X17365301Y-13831150D01*
X17365301Y-13831150D02*
X17384349Y-13840674D01*
X17460539Y-14040674D02*
X17470063Y-14031150D01*
X17470063Y-14031150D02*
X17489111Y-14002579D01*
X17489111Y-14002579D02*
X17498634Y-13983531D01*
X17498634Y-13983531D02*
X17508158Y-13954960D01*
X17508158Y-13954960D02*
X17517682Y-13907341D01*
X17517682Y-13907341D02*
X17517682Y-13869246D01*
X17517682Y-13869246D02*
X17508158Y-13821627D01*
X17508158Y-13821627D02*
X17498634Y-13793055D01*
X17498634Y-13793055D02*
X17489111Y-13774008D01*
X17489111Y-13774008D02*
X17470063Y-13745436D01*
X17470063Y-13745436D02*
X17460539Y-13735912D01*
X12465711Y-14207711D02*
X12465711Y-14066289D01*
X12324289Y-14066289D01*
X12324289Y-14207711D01*
X12465711Y-14207711D01*
X12746253Y-14047531D02*
X12755777Y-14038008D01*
X12755777Y-14038008D02*
X12774824Y-14028484D01*
X12774824Y-14028484D02*
X12822443Y-14028484D01*
X12822443Y-14028484D02*
X12841491Y-14038008D01*
X12841491Y-14038008D02*
X12851015Y-14047531D01*
X12851015Y-14047531D02*
X12860539Y-14066579D01*
X12860539Y-14066579D02*
X12860539Y-14085627D01*
X12860539Y-14085627D02*
X12851015Y-14114198D01*
X12851015Y-14114198D02*
X12736729Y-14228484D01*
X12736729Y-14228484D02*
X12860539Y-14228484D01*
X12946253Y-14209436D02*
X12955777Y-14218960D01*
X12955777Y-14218960D02*
X12946253Y-14228484D01*
X12946253Y-14228484D02*
X12936729Y-14218960D01*
X12936729Y-14218960D02*
X12946253Y-14209436D01*
X12946253Y-14209436D02*
X12946253Y-14228484D01*
X13079586Y-14028484D02*
X13098634Y-14028484D01*
X13098634Y-14028484D02*
X13117682Y-14038008D01*
X13117682Y-14038008D02*
X13127205Y-14047531D01*
X13127205Y-14047531D02*
X13136729Y-14066579D01*
X13136729Y-14066579D02*
X13146253Y-14104674D01*
X13146253Y-14104674D02*
X13146253Y-14152293D01*
X13146253Y-14152293D02*
X13136729Y-14190388D01*
X13136729Y-14190388D02*
X13127205Y-14209436D01*
X13127205Y-14209436D02*
X13117682Y-14218960D01*
X13117682Y-14218960D02*
X13098634Y-14228484D01*
X13098634Y-14228484D02*
X13079586Y-14228484D01*
X13079586Y-14228484D02*
X13060539Y-14218960D01*
X13060539Y-14218960D02*
X13051015Y-14209436D01*
X13051015Y-14209436D02*
X13041491Y-14190388D01*
X13041491Y-14190388D02*
X13031967Y-14152293D01*
X13031967Y-14152293D02*
X13031967Y-14104674D01*
X13031967Y-14104674D02*
X13041491Y-14066579D01*
X13041491Y-14066579D02*
X13051015Y-14047531D01*
X13051015Y-14047531D02*
X13060539Y-14038008D01*
X13060539Y-14038008D02*
X13079586Y-14028484D01*
X13260539Y-14114198D02*
X13241491Y-14104674D01*
X13241491Y-14104674D02*
X13231967Y-14095150D01*
X13231967Y-14095150D02*
X13222443Y-14076103D01*
X13222443Y-14076103D02*
X13222443Y-14066579D01*
X13222443Y-14066579D02*
X13231967Y-14047531D01*
X13231967Y-14047531D02*
X13241491Y-14038008D01*
X13241491Y-14038008D02*
X13260539Y-14028484D01*
X13260539Y-14028484D02*
X13298634Y-14028484D01*
X13298634Y-14028484D02*
X13317682Y-14038008D01*
X13317682Y-14038008D02*
X13327205Y-14047531D01*
X13327205Y-14047531D02*
X13336729Y-14066579D01*
X13336729Y-14066579D02*
X13336729Y-14076103D01*
X13336729Y-14076103D02*
X13327205Y-14095150D01*
X13327205Y-14095150D02*
X13317682Y-14104674D01*
X13317682Y-14104674D02*
X13298634Y-14114198D01*
X13298634Y-14114198D02*
X13260539Y-14114198D01*
X13260539Y-14114198D02*
X13241491Y-14123722D01*
X13241491Y-14123722D02*
X13231967Y-14133246D01*
X13231967Y-14133246D02*
X13222443Y-14152293D01*
X13222443Y-14152293D02*
X13222443Y-14190388D01*
X13222443Y-14190388D02*
X13231967Y-14209436D01*
X13231967Y-14209436D02*
X13241491Y-14218960D01*
X13241491Y-14218960D02*
X13260539Y-14228484D01*
X13260539Y-14228484D02*
X13298634Y-14228484D01*
X13298634Y-14228484D02*
X13317682Y-14218960D01*
X13317682Y-14218960D02*
X13327205Y-14209436D01*
X13327205Y-14209436D02*
X13336729Y-14190388D01*
X13336729Y-14190388D02*
X13336729Y-14152293D01*
X13336729Y-14152293D02*
X13327205Y-14133246D01*
X13327205Y-14133246D02*
X13317682Y-14123722D01*
X13317682Y-14123722D02*
X13298634Y-14114198D01*
X13460539Y-14028484D02*
X13479586Y-14028484D01*
X13479586Y-14028484D02*
X13498634Y-14038008D01*
X13498634Y-14038008D02*
X13508158Y-14047531D01*
X13508158Y-14047531D02*
X13517682Y-14066579D01*
X13517682Y-14066579D02*
X13527205Y-14104674D01*
X13527205Y-14104674D02*
X13527205Y-14152293D01*
X13527205Y-14152293D02*
X13517682Y-14190388D01*
X13517682Y-14190388D02*
X13508158Y-14209436D01*
X13508158Y-14209436D02*
X13498634Y-14218960D01*
X13498634Y-14218960D02*
X13479586Y-14228484D01*
X13479586Y-14228484D02*
X13460539Y-14228484D01*
X13460539Y-14228484D02*
X13441491Y-14218960D01*
X13441491Y-14218960D02*
X13431967Y-14209436D01*
X13431967Y-14209436D02*
X13422443Y-14190388D01*
X13422443Y-14190388D02*
X13412920Y-14152293D01*
X13412920Y-14152293D02*
X13412920Y-14104674D01*
X13412920Y-14104674D02*
X13422443Y-14066579D01*
X13422443Y-14066579D02*
X13431967Y-14047531D01*
X13431967Y-14047531D02*
X13441491Y-14038008D01*
X13441491Y-14038008D02*
X13460539Y-14028484D01*
X13612920Y-14228484D02*
X13612920Y-14095150D01*
X13612920Y-14114198D02*
X13622443Y-14104674D01*
X13622443Y-14104674D02*
X13641491Y-14095150D01*
X13641491Y-14095150D02*
X13670063Y-14095150D01*
X13670063Y-14095150D02*
X13689110Y-14104674D01*
X13689110Y-14104674D02*
X13698634Y-14123722D01*
X13698634Y-14123722D02*
X13698634Y-14228484D01*
X13698634Y-14123722D02*
X13708158Y-14104674D01*
X13708158Y-14104674D02*
X13727205Y-14095150D01*
X13727205Y-14095150D02*
X13755777Y-14095150D01*
X13755777Y-14095150D02*
X13774824Y-14104674D01*
X13774824Y-14104674D02*
X13784348Y-14123722D01*
X13784348Y-14123722D02*
X13784348Y-14228484D01*
X13879586Y-14228484D02*
X13879586Y-14095150D01*
X13879586Y-14114198D02*
X13889110Y-14104674D01*
X13889110Y-14104674D02*
X13908158Y-14095150D01*
X13908158Y-14095150D02*
X13936729Y-14095150D01*
X13936729Y-14095150D02*
X13955777Y-14104674D01*
X13955777Y-14104674D02*
X13965301Y-14123722D01*
X13965301Y-14123722D02*
X13965301Y-14228484D01*
X13965301Y-14123722D02*
X13974824Y-14104674D01*
X13974824Y-14104674D02*
X13993872Y-14095150D01*
X13993872Y-14095150D02*
X14022443Y-14095150D01*
X14022443Y-14095150D02*
X14041491Y-14104674D01*
X14041491Y-14104674D02*
X14051015Y-14123722D01*
X14051015Y-14123722D02*
X14051015Y-14228484D01*
X14441491Y-14018960D02*
X14270063Y-14276103D01*
X14698634Y-14028484D02*
X14717682Y-14028484D01*
X14717682Y-14028484D02*
X14736729Y-14038008D01*
X14736729Y-14038008D02*
X14746253Y-14047531D01*
X14746253Y-14047531D02*
X14755777Y-14066579D01*
X14755777Y-14066579D02*
X14765301Y-14104674D01*
X14765301Y-14104674D02*
X14765301Y-14152293D01*
X14765301Y-14152293D02*
X14755777Y-14190388D01*
X14755777Y-14190388D02*
X14746253Y-14209436D01*
X14746253Y-14209436D02*
X14736729Y-14218960D01*
X14736729Y-14218960D02*
X14717682Y-14228484D01*
X14717682Y-14228484D02*
X14698634Y-14228484D01*
X14698634Y-14228484D02*
X14679586Y-14218960D01*
X14679586Y-14218960D02*
X14670063Y-14209436D01*
X14670063Y-14209436D02*
X14660539Y-14190388D01*
X14660539Y-14190388D02*
X14651015Y-14152293D01*
X14651015Y-14152293D02*
X14651015Y-14104674D01*
X14651015Y-14104674D02*
X14660539Y-14066579D01*
X14660539Y-14066579D02*
X14670063Y-14047531D01*
X14670063Y-14047531D02*
X14679586Y-14038008D01*
X14679586Y-14038008D02*
X14698634Y-14028484D01*
X14851015Y-14209436D02*
X14860539Y-14218960D01*
X14860539Y-14218960D02*
X14851015Y-14228484D01*
X14851015Y-14228484D02*
X14841491Y-14218960D01*
X14841491Y-14218960D02*
X14851015Y-14209436D01*
X14851015Y-14209436D02*
X14851015Y-14228484D01*
X14984348Y-14028484D02*
X15003396Y-14028484D01*
X15003396Y-14028484D02*
X15022444Y-14038008D01*
X15022444Y-14038008D02*
X15031967Y-14047531D01*
X15031967Y-14047531D02*
X15041491Y-14066579D01*
X15041491Y-14066579D02*
X15051015Y-14104674D01*
X15051015Y-14104674D02*
X15051015Y-14152293D01*
X15051015Y-14152293D02*
X15041491Y-14190388D01*
X15041491Y-14190388D02*
X15031967Y-14209436D01*
X15031967Y-14209436D02*
X15022444Y-14218960D01*
X15022444Y-14218960D02*
X15003396Y-14228484D01*
X15003396Y-14228484D02*
X14984348Y-14228484D01*
X14984348Y-14228484D02*
X14965301Y-14218960D01*
X14965301Y-14218960D02*
X14955777Y-14209436D01*
X14955777Y-14209436D02*
X14946253Y-14190388D01*
X14946253Y-14190388D02*
X14936729Y-14152293D01*
X14936729Y-14152293D02*
X14936729Y-14104674D01*
X14936729Y-14104674D02*
X14946253Y-14066579D01*
X14946253Y-14066579D02*
X14955777Y-14047531D01*
X14955777Y-14047531D02*
X14965301Y-14038008D01*
X14965301Y-14038008D02*
X14984348Y-14028484D01*
X15165301Y-14114198D02*
X15146253Y-14104674D01*
X15146253Y-14104674D02*
X15136729Y-14095150D01*
X15136729Y-14095150D02*
X15127206Y-14076103D01*
X15127206Y-14076103D02*
X15127206Y-14066579D01*
X15127206Y-14066579D02*
X15136729Y-14047531D01*
X15136729Y-14047531D02*
X15146253Y-14038008D01*
X15146253Y-14038008D02*
X15165301Y-14028484D01*
X15165301Y-14028484D02*
X15203396Y-14028484D01*
X15203396Y-14028484D02*
X15222444Y-14038008D01*
X15222444Y-14038008D02*
X15231967Y-14047531D01*
X15231967Y-14047531D02*
X15241491Y-14066579D01*
X15241491Y-14066579D02*
X15241491Y-14076103D01*
X15241491Y-14076103D02*
X15231967Y-14095150D01*
X15231967Y-14095150D02*
X15222444Y-14104674D01*
X15222444Y-14104674D02*
X15203396Y-14114198D01*
X15203396Y-14114198D02*
X15165301Y-14114198D01*
X15165301Y-14114198D02*
X15146253Y-14123722D01*
X15146253Y-14123722D02*
X15136729Y-14133246D01*
X15136729Y-14133246D02*
X15127206Y-14152293D01*
X15127206Y-14152293D02*
X15127206Y-14190388D01*
X15127206Y-14190388D02*
X15136729Y-14209436D01*
X15136729Y-14209436D02*
X15146253Y-14218960D01*
X15146253Y-14218960D02*
X15165301Y-14228484D01*
X15165301Y-14228484D02*
X15203396Y-14228484D01*
X15203396Y-14228484D02*
X15222444Y-14218960D01*
X15222444Y-14218960D02*
X15231967Y-14209436D01*
X15231967Y-14209436D02*
X15241491Y-14190388D01*
X15241491Y-14190388D02*
X15241491Y-14152293D01*
X15241491Y-14152293D02*
X15231967Y-14133246D01*
X15231967Y-14133246D02*
X15222444Y-14123722D01*
X15222444Y-14123722D02*
X15203396Y-14114198D01*
X15431967Y-14228484D02*
X15317682Y-14228484D01*
X15374825Y-14228484D02*
X15374825Y-14028484D01*
X15374825Y-14028484D02*
X15355777Y-14057055D01*
X15355777Y-14057055D02*
X15336729Y-14076103D01*
X15336729Y-14076103D02*
X15317682Y-14085627D01*
X15527206Y-14228484D02*
X15565301Y-14228484D01*
X15565301Y-14228484D02*
X15584348Y-14218960D01*
X15584348Y-14218960D02*
X15593872Y-14209436D01*
X15593872Y-14209436D02*
X15612920Y-14180865D01*
X15612920Y-14180865D02*
X15622444Y-14142769D01*
X15622444Y-14142769D02*
X15622444Y-14066579D01*
X15622444Y-14066579D02*
X15612920Y-14047531D01*
X15612920Y-14047531D02*
X15603396Y-14038008D01*
X15603396Y-14038008D02*
X15584348Y-14028484D01*
X15584348Y-14028484D02*
X15546253Y-14028484D01*
X15546253Y-14028484D02*
X15527206Y-14038008D01*
X15527206Y-14038008D02*
X15517682Y-14047531D01*
X15517682Y-14047531D02*
X15508158Y-14066579D01*
X15508158Y-14066579D02*
X15508158Y-14114198D01*
X15508158Y-14114198D02*
X15517682Y-14133246D01*
X15517682Y-14133246D02*
X15527206Y-14142769D01*
X15527206Y-14142769D02*
X15546253Y-14152293D01*
X15546253Y-14152293D02*
X15584348Y-14152293D01*
X15584348Y-14152293D02*
X15603396Y-14142769D01*
X15603396Y-14142769D02*
X15612920Y-14133246D01*
X15612920Y-14133246D02*
X15622444Y-14114198D01*
X15698634Y-14028484D02*
X15698634Y-14066579D01*
X15774825Y-14028484D02*
X15774825Y-14066579D01*
X16070063Y-14304674D02*
X16060539Y-14295150D01*
X16060539Y-14295150D02*
X16041491Y-14266579D01*
X16041491Y-14266579D02*
X16031968Y-14247531D01*
X16031968Y-14247531D02*
X16022444Y-14218960D01*
X16022444Y-14218960D02*
X16012920Y-14171341D01*
X16012920Y-14171341D02*
X16012920Y-14133246D01*
X16012920Y-14133246D02*
X16022444Y-14085627D01*
X16022444Y-14085627D02*
X16031968Y-14057055D01*
X16031968Y-14057055D02*
X16041491Y-14038008D01*
X16041491Y-14038008D02*
X16060539Y-14009436D01*
X16060539Y-14009436D02*
X16070063Y-13999912D01*
X16241491Y-14028484D02*
X16146253Y-14028484D01*
X16146253Y-14028484D02*
X16136729Y-14123722D01*
X16136729Y-14123722D02*
X16146253Y-14114198D01*
X16146253Y-14114198D02*
X16165301Y-14104674D01*
X16165301Y-14104674D02*
X16212920Y-14104674D01*
X16212920Y-14104674D02*
X16231968Y-14114198D01*
X16231968Y-14114198D02*
X16241491Y-14123722D01*
X16241491Y-14123722D02*
X16251015Y-14142769D01*
X16251015Y-14142769D02*
X16251015Y-14190388D01*
X16251015Y-14190388D02*
X16241491Y-14209436D01*
X16241491Y-14209436D02*
X16231968Y-14218960D01*
X16231968Y-14218960D02*
X16212920Y-14228484D01*
X16212920Y-14228484D02*
X16165301Y-14228484D01*
X16165301Y-14228484D02*
X16146253Y-14218960D01*
X16146253Y-14218960D02*
X16136729Y-14209436D01*
X16489110Y-14228484D02*
X16489110Y-14028484D01*
X16574825Y-14228484D02*
X16574825Y-14123722D01*
X16574825Y-14123722D02*
X16565301Y-14104674D01*
X16565301Y-14104674D02*
X16546253Y-14095150D01*
X16546253Y-14095150D02*
X16517682Y-14095150D01*
X16517682Y-14095150D02*
X16498634Y-14104674D01*
X16498634Y-14104674D02*
X16489110Y-14114198D01*
X16698634Y-14228484D02*
X16679587Y-14218960D01*
X16679587Y-14218960D02*
X16670063Y-14209436D01*
X16670063Y-14209436D02*
X16660539Y-14190388D01*
X16660539Y-14190388D02*
X16660539Y-14133246D01*
X16660539Y-14133246D02*
X16670063Y-14114198D01*
X16670063Y-14114198D02*
X16679587Y-14104674D01*
X16679587Y-14104674D02*
X16698634Y-14095150D01*
X16698634Y-14095150D02*
X16727206Y-14095150D01*
X16727206Y-14095150D02*
X16746253Y-14104674D01*
X16746253Y-14104674D02*
X16755777Y-14114198D01*
X16755777Y-14114198D02*
X16765301Y-14133246D01*
X16765301Y-14133246D02*
X16765301Y-14190388D01*
X16765301Y-14190388D02*
X16755777Y-14209436D01*
X16755777Y-14209436D02*
X16746253Y-14218960D01*
X16746253Y-14218960D02*
X16727206Y-14228484D01*
X16727206Y-14228484D02*
X16698634Y-14228484D01*
X16879587Y-14228484D02*
X16860539Y-14218960D01*
X16860539Y-14218960D02*
X16851015Y-14199912D01*
X16851015Y-14199912D02*
X16851015Y-14028484D01*
X17031968Y-14218960D02*
X17012920Y-14228484D01*
X17012920Y-14228484D02*
X16974825Y-14228484D01*
X16974825Y-14228484D02*
X16955777Y-14218960D01*
X16955777Y-14218960D02*
X16946253Y-14199912D01*
X16946253Y-14199912D02*
X16946253Y-14123722D01*
X16946253Y-14123722D02*
X16955777Y-14104674D01*
X16955777Y-14104674D02*
X16974825Y-14095150D01*
X16974825Y-14095150D02*
X17012920Y-14095150D01*
X17012920Y-14095150D02*
X17031968Y-14104674D01*
X17031968Y-14104674D02*
X17041492Y-14123722D01*
X17041492Y-14123722D02*
X17041492Y-14142769D01*
X17041492Y-14142769D02*
X16946253Y-14161817D01*
X17117682Y-14218960D02*
X17136730Y-14228484D01*
X17136730Y-14228484D02*
X17174825Y-14228484D01*
X17174825Y-14228484D02*
X17193873Y-14218960D01*
X17193873Y-14218960D02*
X17203396Y-14199912D01*
X17203396Y-14199912D02*
X17203396Y-14190388D01*
X17203396Y-14190388D02*
X17193873Y-14171341D01*
X17193873Y-14171341D02*
X17174825Y-14161817D01*
X17174825Y-14161817D02*
X17146253Y-14161817D01*
X17146253Y-14161817D02*
X17127206Y-14152293D01*
X17127206Y-14152293D02*
X17117682Y-14133246D01*
X17117682Y-14133246D02*
X17117682Y-14123722D01*
X17117682Y-14123722D02*
X17127206Y-14104674D01*
X17127206Y-14104674D02*
X17146253Y-14095150D01*
X17146253Y-14095150D02*
X17174825Y-14095150D01*
X17174825Y-14095150D02*
X17193873Y-14104674D01*
X17270063Y-14304674D02*
X17279587Y-14295150D01*
X17279587Y-14295150D02*
X17298634Y-14266579D01*
X17298634Y-14266579D02*
X17308158Y-14247531D01*
X17308158Y-14247531D02*
X17317682Y-14218960D01*
X17317682Y-14218960D02*
X17327206Y-14171341D01*
X17327206Y-14171341D02*
X17327206Y-14133246D01*
X17327206Y-14133246D02*
X17317682Y-14085627D01*
X17317682Y-14085627D02*
X17308158Y-14057055D01*
X17308158Y-14057055D02*
X17298634Y-14038008D01*
X17298634Y-14038008D02*
X17279587Y-14009436D01*
X17279587Y-14009436D02*
X17270063Y-13999912D01*
M02*
