%TF.GenerationSoftware,KiCad,Pcbnew,7.0.9*%
%TF.CreationDate,2024-01-13T15:57:46+01:00*%
%TF.ProjectId,daisy-drums,64616973-792d-4647-9275-6d732e6b6963,v02*%
%TF.SameCoordinates,Original*%
%TF.FileFunction,Paste,Top*%
%TF.FilePolarity,Positive*%
%FSLAX46Y46*%
G04 Gerber Fmt 4.6, Leading zero omitted, Abs format (unit mm)*
G04 Created by KiCad (PCBNEW 7.0.9) date 2024-01-13 15:57:46*
%MOMM*%
%LPD*%
G01*
G04 APERTURE LIST*
G04 Aperture macros list*
%AMRoundRect*
0 Rectangle with rounded corners*
0 $1 Rounding radius*
0 $2 $3 $4 $5 $6 $7 $8 $9 X,Y pos of 4 corners*
0 Add a 4 corners polygon primitive as box body*
4,1,4,$2,$3,$4,$5,$6,$7,$8,$9,$2,$3,0*
0 Add four circle primitives for the rounded corners*
1,1,$1+$1,$2,$3*
1,1,$1+$1,$4,$5*
1,1,$1+$1,$6,$7*
1,1,$1+$1,$8,$9*
0 Add four rect primitives between the rounded corners*
20,1,$1+$1,$2,$3,$4,$5,0*
20,1,$1+$1,$4,$5,$6,$7,0*
20,1,$1+$1,$6,$7,$8,$9,0*
20,1,$1+$1,$8,$9,$2,$3,0*%
G04 Aperture macros list end*
%ADD10RoundRect,0.250000X-0.450000X0.262500X-0.450000X-0.262500X0.450000X-0.262500X0.450000X0.262500X0*%
%ADD11RoundRect,0.250000X0.312500X0.625000X-0.312500X0.625000X-0.312500X-0.625000X0.312500X-0.625000X0*%
%ADD12RoundRect,0.150000X0.850000X0.150000X-0.850000X0.150000X-0.850000X-0.150000X0.850000X-0.150000X0*%
%ADD13RoundRect,0.150000X-0.150000X0.825000X-0.150000X-0.825000X0.150000X-0.825000X0.150000X0.825000X0*%
%ADD14R,0.700000X1.750000*%
%ADD15R,1.450000X1.000000*%
%ADD16R,1.000000X1.550000*%
%ADD17R,0.800000X1.500000*%
%ADD18R,1.300000X1.500000*%
%ADD19R,1.500000X1.500000*%
%ADD20R,0.800000X1.400000*%
G04 APERTURE END LIST*
D10*
%TO.C,R1*%
X191214000Y-55221500D03*
X191214000Y-57046500D03*
%TD*%
D11*
%TO.C,R11*%
X221388900Y-78765400D03*
X218463900Y-78765400D03*
%TD*%
%TO.C,R7*%
X221388900Y-88925400D03*
X218463900Y-88925400D03*
%TD*%
D12*
%TO.C,U6*%
X211708600Y-87426800D03*
X211708600Y-86156800D03*
X211708600Y-84886800D03*
X211708600Y-83616800D03*
X211708600Y-82346800D03*
X211708600Y-81076800D03*
X211708600Y-79806800D03*
X211708600Y-78536800D03*
X206708600Y-78536800D03*
X206708600Y-79806800D03*
X206708600Y-81076800D03*
X206708600Y-82346800D03*
X206708600Y-83616800D03*
X206708600Y-84886800D03*
X206708600Y-86156800D03*
X206708600Y-87426800D03*
%TD*%
D13*
%TO.C,U5*%
X168445000Y-57545000D03*
X167175000Y-57545000D03*
X165905000Y-57545000D03*
X164635000Y-57545000D03*
X163365000Y-57545000D03*
X162095000Y-57545000D03*
X160825000Y-57545000D03*
X159555000Y-57545000D03*
X159555000Y-62495000D03*
X160825000Y-62495000D03*
X162095000Y-62495000D03*
X163365000Y-62495000D03*
X164635000Y-62495000D03*
X165905000Y-62495000D03*
X167175000Y-62495000D03*
X168445000Y-62495000D03*
%TD*%
D11*
%TO.C,R10*%
X221388900Y-81305400D03*
X218463900Y-81305400D03*
%TD*%
D10*
%TO.C,R3*%
X185214000Y-55221500D03*
X185214000Y-57046500D03*
%TD*%
D13*
%TO.C,U2*%
X168445000Y-68913000D03*
X167175000Y-68913000D03*
X165905000Y-68913000D03*
X164635000Y-68913000D03*
X163365000Y-68913000D03*
X162095000Y-68913000D03*
X160825000Y-68913000D03*
X159555000Y-68913000D03*
X159555000Y-73863000D03*
X160825000Y-73863000D03*
X162095000Y-73863000D03*
X163365000Y-73863000D03*
X164635000Y-73863000D03*
X165905000Y-73863000D03*
X167175000Y-73863000D03*
X168445000Y-73863000D03*
%TD*%
D10*
%TO.C,R2*%
X188214000Y-55221500D03*
X188214000Y-57046500D03*
%TD*%
D11*
%TO.C,R6*%
X221388900Y-91465400D03*
X218463900Y-91465400D03*
%TD*%
D10*
%TO.C,R5*%
X194214000Y-55221500D03*
X194214000Y-57046500D03*
%TD*%
D14*
%TO.C,J1*%
X220960600Y-55175800D03*
X222060600Y-55175800D03*
X223160600Y-55175800D03*
X224260600Y-55175800D03*
X225360600Y-55175800D03*
X226460600Y-55175800D03*
X227560600Y-55175800D03*
X228660600Y-55175800D03*
D15*
X229785600Y-64400800D03*
D16*
X218560600Y-65975800D03*
D17*
X230110600Y-62900800D03*
D18*
X229860600Y-55300800D03*
D19*
X218510600Y-55300800D03*
D20*
X218160600Y-63550800D03*
%TD*%
D11*
%TO.C,R8*%
X221388900Y-86385400D03*
X218463900Y-86385400D03*
%TD*%
D13*
%TO.C,U1*%
X168445000Y-114385000D03*
X167175000Y-114385000D03*
X165905000Y-114385000D03*
X164635000Y-114385000D03*
X163365000Y-114385000D03*
X162095000Y-114385000D03*
X160825000Y-114385000D03*
X159555000Y-114385000D03*
X159555000Y-119335000D03*
X160825000Y-119335000D03*
X162095000Y-119335000D03*
X163365000Y-119335000D03*
X164635000Y-119335000D03*
X165905000Y-119335000D03*
X167175000Y-119335000D03*
X168445000Y-119335000D03*
%TD*%
%TO.C,U7*%
X168445000Y-91649000D03*
X167175000Y-91649000D03*
X165905000Y-91649000D03*
X164635000Y-91649000D03*
X163365000Y-91649000D03*
X162095000Y-91649000D03*
X160825000Y-91649000D03*
X159555000Y-91649000D03*
X159555000Y-96599000D03*
X160825000Y-96599000D03*
X162095000Y-96599000D03*
X163365000Y-96599000D03*
X164635000Y-96599000D03*
X165905000Y-96599000D03*
X167175000Y-96599000D03*
X168445000Y-96599000D03*
%TD*%
D11*
%TO.C,R12*%
X221388900Y-76225400D03*
X218463900Y-76225400D03*
%TD*%
%TO.C,R9*%
X221388900Y-83845400D03*
X218463900Y-83845400D03*
%TD*%
D10*
%TO.C,R4*%
X182214000Y-55221500D03*
X182214000Y-57046500D03*
%TD*%
D11*
%TO.C,R13*%
X221388900Y-73685400D03*
X218463900Y-73685400D03*
%TD*%
D13*
%TO.C,U3*%
X168445000Y-103017000D03*
X167175000Y-103017000D03*
X165905000Y-103017000D03*
X164635000Y-103017000D03*
X163365000Y-103017000D03*
X162095000Y-103017000D03*
X160825000Y-103017000D03*
X159555000Y-103017000D03*
X159555000Y-107967000D03*
X160825000Y-107967000D03*
X162095000Y-107967000D03*
X163365000Y-107967000D03*
X164635000Y-107967000D03*
X165905000Y-107967000D03*
X167175000Y-107967000D03*
X168445000Y-107967000D03*
%TD*%
%TO.C,U4*%
X168445000Y-80281000D03*
X167175000Y-80281000D03*
X165905000Y-80281000D03*
X164635000Y-80281000D03*
X163365000Y-80281000D03*
X162095000Y-80281000D03*
X160825000Y-80281000D03*
X159555000Y-80281000D03*
X159555000Y-85231000D03*
X160825000Y-85231000D03*
X162095000Y-85231000D03*
X163365000Y-85231000D03*
X164635000Y-85231000D03*
X165905000Y-85231000D03*
X167175000Y-85231000D03*
X168445000Y-85231000D03*
%TD*%
M02*
