M48
; DRILL file {KiCad 7.0.9} date Sat Jan 13 15:58:05 2024
; FORMAT={-:-/ absolute / metric / decimal}
; #@! TF.CreationDate,2024-01-13T15:58:05+01:00
; #@! TF.GenerationSoftware,Kicad,Pcbnew,7.0.9
; #@! TF.FileFunction,Plated,1,2,PTH
FMAT,2
METRIC
; #@! TA.AperFunction,Plated,PTH,ViaDrill
T1C0.400
; #@! TA.AperFunction,Plated,PTH,ComponentDrill
T2C1.100
; #@! TA.AperFunction,Plated,PTH,ComponentDrill
T3C1.190
; #@! TA.AperFunction,Plated,PTH,ComponentDrill
T4C2.080
%
G90
G05
T1
X159.512Y-57.658
X159.512Y-68.834
X159.512Y-80.264
X159.512Y-91.694
X159.512Y-103.124
X159.512Y-114.3
X159.563Y-85.319
X159.563Y-96.647
X159.563Y-108.052
X159.563Y-119.431
X159.588Y-62.535
X159.588Y-73.863
X160.731Y-99.263
X160.757Y-76.606
X160.782Y-62.484
X160.782Y-65.303
X160.782Y-73.914
X160.782Y-85.344
X160.782Y-88.189
X160.782Y-96.52
X160.782Y-107.95
X160.782Y-119.38
X160.782Y-122.377
X160.807Y-110.998
X167.157Y-80.213
X167.183Y-57.531
X167.183Y-62.535
X167.183Y-68.91
X167.183Y-73.965
X167.183Y-85.344
X167.183Y-91.694
X167.183Y-96.698
X167.183Y-103.022
X167.183Y-108.077
X167.183Y-114.402
X167.183Y-119.38
X168.453Y-57.531
X168.453Y-68.885
X168.453Y-80.213
X168.453Y-91.669
X168.453Y-103.022
X168.453Y-114.402
X169.469Y-73.863
X169.621Y-119.329
X169.647Y-96.596
X169.647Y-107.975
X169.672Y-62.484
X169.672Y-85.242
X175.006Y-57.15
X179.07Y-55.372
X182.214Y-55.309
X185.214Y-55.309
X188.214Y-55.309
X191.214Y-55.309
X194.214Y-55.309
X215.671Y-51.46
X215.671Y-52.501
X215.671Y-56.464
X220.961Y-55.176
X222.061Y-55.176
T2
X180.594Y-64.008
X180.594Y-66.548
X180.594Y-69.088
X180.594Y-71.628
X180.594Y-74.168
X180.594Y-76.708
X180.594Y-79.248
X180.594Y-81.788
X180.594Y-84.328
X180.594Y-86.868
X180.594Y-89.408
X180.594Y-91.948
X180.594Y-94.488
X180.594Y-97.028
X180.594Y-99.568
X180.594Y-102.108
X180.594Y-104.648
X180.594Y-107.188
X180.594Y-109.728
X180.594Y-112.268
X195.834Y-64.008
X195.834Y-66.548
X195.834Y-69.088
X195.834Y-71.628
X195.834Y-74.168
X195.834Y-76.708
X195.834Y-79.248
X195.834Y-81.788
X195.834Y-84.328
X195.834Y-86.868
X195.834Y-89.408
X195.834Y-91.948
X195.834Y-94.488
X195.834Y-97.028
X195.834Y-99.568
X195.834Y-102.108
X195.834Y-104.648
X195.834Y-107.188
X195.834Y-109.728
X195.834Y-112.268
T3
X132.334Y-60.0
X132.334Y-71.368
X132.334Y-82.736
X132.334Y-94.104
X132.334Y-105.472
X132.334Y-116.84
X134.874Y-60.0
X134.874Y-71.368
X134.874Y-82.736
X134.874Y-94.104
X134.874Y-105.472
X134.874Y-116.84
X137.414Y-60.0
X137.414Y-71.368
X137.414Y-82.736
X137.414Y-94.104
X137.414Y-105.472
X137.414Y-116.84
X139.954Y-60.0
X139.954Y-71.368
X139.954Y-82.736
X139.954Y-94.104
X139.954Y-105.472
X139.954Y-116.84
X142.494Y-60.0
X142.494Y-71.368
X142.494Y-82.736
X142.494Y-94.104
X142.494Y-105.472
X142.494Y-116.84
X145.034Y-60.0
X145.034Y-71.368
X145.034Y-82.736
X145.034Y-94.104
X145.034Y-105.472
X145.034Y-116.84
X147.574Y-60.0
X147.574Y-71.368
X147.574Y-82.736
X147.574Y-94.104
X147.574Y-105.472
X147.574Y-116.84
X150.114Y-60.0
X150.114Y-71.368
X150.114Y-82.736
X150.114Y-94.104
X150.114Y-105.472
X150.114Y-116.84
X184.404Y-121.031
X186.944Y-121.031
X189.484Y-121.031
X192.024Y-121.031
X202.438Y-65.532
X204.978Y-65.532
X229.565Y-73.685
X229.565Y-76.225
X229.565Y-78.765
X229.565Y-81.305
X229.565Y-83.845
X229.565Y-86.385
X229.565Y-88.925
X229.565Y-91.465
T4
X208.502Y-103.886
X208.502Y-114.046
X218.412Y-103.886
X218.412Y-114.046
X218.412Y-121.666
T0
M30
