M48
; DRILL file {KiCad 7.0.9} date Tue Jan  2 21:00:39 2024
; FORMAT={-:-/ absolute / inch / decimal}
; #@! TF.CreationDate,2024-01-02T21:00:39+01:00
; #@! TF.GenerationSoftware,Kicad,Pcbnew,7.0.9
; #@! TF.FileFunction,Plated,1,2,PTH
FMAT,2
INCH
; #@! TA.AperFunction,Plated,PTH,ViaDrill
T1C0.0157
; #@! TA.AperFunction,Plated,PTH,ComponentDrill
T2C0.0300
; #@! TA.AperFunction,Plated,PTH,ComponentDrill
T3C0.0315
; #@! TA.AperFunction,Plated,PTH,ComponentDrill
T4C0.0394
; #@! TA.AperFunction,Plated,PTH,ComponentDrill
T5C0.0433
; #@! TA.AperFunction,Plated,PTH,ComponentDrill
T6C0.0469
; #@! TA.AperFunction,Plated,PTH,ComponentDrill
T7C0.0819
%
G90
G05
T1
X6.296Y-2.044
X6.526Y-4.342
X6.63Y-4.24
X6.72Y-2.026
X6.932Y-2.026
X7.982Y-2.972
T2
X9.17Y-1.65
X9.17Y-1.75
X9.17Y-1.85
X9.17Y-1.95
X9.87Y-1.65
X9.87Y-1.75
X9.87Y-1.85
X9.87Y-1.95
X9.87Y-2.05
X9.87Y-2.15
X9.87Y-2.25
T3
X6.1204Y-1.774
X6.1204Y-1.874
X6.1204Y-1.974
X6.1204Y-2.074
X6.1204Y-2.174
X6.1204Y-2.274
X6.1204Y-2.374
X6.1204Y-2.474
X6.1204Y-2.908
X6.1204Y-3.008
X6.1204Y-3.108
X6.1204Y-3.208
X6.1204Y-3.308
X6.1204Y-3.408
X6.1204Y-3.508
X6.1204Y-3.608
X6.1204Y-4.042
X6.1204Y-4.142
X6.1204Y-4.242
X6.1204Y-4.342
X6.1204Y-4.442
X6.1204Y-4.542
X6.1204Y-4.642
X6.1204Y-4.742
X6.4204Y-1.774
X6.4204Y-1.874
X6.4204Y-1.974
X6.4204Y-2.074
X6.4204Y-2.174
X6.4204Y-2.274
X6.4204Y-2.374
X6.4204Y-2.474
X6.4204Y-2.908
X6.4204Y-3.008
X6.4204Y-3.108
X6.4204Y-3.208
X6.4204Y-3.308
X6.4204Y-3.408
X6.4204Y-3.508
X6.4204Y-3.608
X6.4204Y-4.042
X6.4204Y-4.142
X6.4204Y-4.242
X6.4204Y-4.342
X6.4204Y-4.442
X6.4204Y-4.542
X6.4204Y-4.642
X6.4204Y-4.742
X6.79Y-1.774
X6.79Y-1.874
X6.79Y-1.974
X6.79Y-2.074
X6.79Y-2.174
X6.79Y-2.274
X6.79Y-2.374
X6.79Y-2.474
X6.79Y-2.908
X6.79Y-3.008
X6.79Y-3.108
X6.79Y-3.208
X6.79Y-3.308
X6.79Y-3.408
X6.79Y-3.508
X6.79Y-3.608
X6.79Y-4.042
X6.79Y-4.142
X6.79Y-4.242
X6.79Y-4.342
X6.79Y-4.442
X6.79Y-4.542
X6.79Y-4.642
X6.79Y-4.742
X7.09Y-1.774
X7.09Y-1.874
X7.09Y-1.974
X7.09Y-2.074
X7.09Y-2.174
X7.09Y-2.274
X7.09Y-2.374
X7.09Y-2.474
X7.09Y-2.908
X7.09Y-3.008
X7.09Y-3.108
X7.09Y-3.208
X7.09Y-3.308
X7.09Y-3.408
X7.09Y-3.508
X7.09Y-3.608
X7.09Y-4.042
X7.09Y-4.142
X7.09Y-4.242
X7.09Y-4.342
X7.09Y-4.442
X7.09Y-4.542
X7.09Y-4.642
X7.09Y-4.742
X8.55Y-3.02
X8.55Y-3.2049
X8.55Y-3.3897
X8.55Y-3.5746
X8.55Y-3.7595
X8.55Y-3.9443
X8.55Y-4.1292
X8.55Y-4.314
X8.558Y-1.7945
X8.558Y-1.9609
X8.558Y-2.1273
X8.558Y-2.2936
X8.558Y-2.46
X8.85Y-3.02
X8.85Y-3.2049
X8.85Y-3.3897
X8.85Y-3.5746
X8.85Y-3.7595
X8.85Y-3.9443
X8.85Y-4.1292
X8.85Y-4.314
X8.858Y-1.7945
X8.858Y-1.9609
X8.858Y-2.1273
X8.858Y-2.2936
X8.858Y-2.46
T4
X9.36Y-2.7693
X9.36Y-2.8693
X9.36Y-2.9693
X9.36Y-3.0693
X9.36Y-3.1693
X9.36Y-3.2693
X9.36Y-3.3693
X9.36Y-3.4693
X9.66Y-2.7693
X9.66Y-2.8693
X9.66Y-2.9693
X9.66Y-3.0693
X9.66Y-3.1693
X9.66Y-3.2693
X9.66Y-3.3693
X9.66Y-3.4693
T5
X7.55Y-2.37
X7.55Y-2.47
X7.55Y-2.57
X7.55Y-2.67
X7.55Y-2.77
X7.55Y-2.87
X7.55Y-2.97
X7.55Y-3.07
X7.55Y-3.17
X7.55Y-3.27
X7.55Y-3.37
X7.55Y-3.47
X7.55Y-3.57
X7.55Y-3.67
X7.55Y-3.77
X7.55Y-3.87
X7.55Y-3.97
X7.55Y-4.07
X7.55Y-4.17
X7.55Y-4.27
X8.15Y-2.37
X8.15Y-2.47
X8.15Y-2.57
X8.15Y-2.67
X8.15Y-2.77
X8.15Y-2.87
X8.15Y-2.97
X8.15Y-3.07
X8.15Y-3.17
X8.15Y-3.27
X8.15Y-3.37
X8.15Y-3.47
X8.15Y-3.57
X8.15Y-3.67
X8.15Y-3.77
X8.15Y-3.87
X8.15Y-3.97
X8.15Y-4.07
X8.15Y-4.17
X8.15Y-4.27
T6
X5.2696Y-1.7734
X5.2696Y-1.8734
X5.2696Y-1.9734
X5.2696Y-2.0734
X5.2696Y-2.1734
X5.2696Y-2.2734
X5.2696Y-2.3734
X5.2696Y-2.4734
X5.2696Y-2.9074
X5.2696Y-3.0074
X5.2696Y-3.1074
X5.2696Y-3.2074
X5.2696Y-3.3074
X5.2696Y-3.4074
X5.2696Y-3.5074
X5.2696Y-3.6074
X5.2696Y-4.0414
X5.2696Y-4.1414
X5.2696Y-4.2414
X5.2696Y-4.3414
X5.2696Y-4.4414
X5.2696Y-4.5414
X5.2696Y-4.6414
X5.2696Y-4.7414
X5.6856Y-1.7734
X5.6856Y-1.8734
X5.6856Y-1.9734
X5.6856Y-2.0734
X5.6856Y-2.1734
X5.6856Y-2.2734
X5.6856Y-2.3734
X5.6856Y-2.4734
X5.6856Y-2.9074
X5.6856Y-3.0074
X5.6856Y-3.1074
X5.6856Y-3.2074
X5.6856Y-3.3074
X5.6856Y-3.4074
X5.6856Y-3.5074
X5.6856Y-3.6074
X5.6856Y-4.0414
X5.6856Y-4.1414
X5.6856Y-4.2414
X5.6856Y-4.3414
X5.6856Y-4.4414
X5.6856Y-4.5414
X5.6856Y-4.6414
X5.6856Y-4.7414
X7.8Y-4.7816
X7.82Y-1.78
X7.9Y-4.7816
X7.92Y-1.78
X8.0Y-4.7816
X8.1Y-4.7816
X8.35Y-4.7816
X8.45Y-4.7816
X8.55Y-4.7816
X8.65Y-4.7816
X8.75Y-4.7816
X8.85Y-4.7816
X8.95Y-4.7816
X9.05Y-4.7816
T7
X9.3898Y-4.09
X9.3898Y-4.49
X9.78Y-4.09
X9.78Y-4.49
X9.78Y-4.79
T0
M30
